<?xml version="1.0" encoding="utf-8"?>
<!-- Generator: Adobe Illustrator 27.5.0, SVG Export Plug-In . SVG Version: 6.00 Build 0)  -->
<svg version="1.1" xmlns="http://www.w3.org/2000/svg" xmlns:xlink="http://www.w3.org/1999/xlink" x="0px" y="0px"
	 viewBox="0 0 500 500" style="enable-background:new 0 0 500 500;" xml:space="preserve">
<g id="Background_Simple">
	<g>
		<path style="fill:#92E3A9;" d="M151.668,237.667c0,43.614-55.646,82.842-77.091,121.877
			c-33.461,60.909,28.67,105.803,116.302,105.803c133.514,0,290.102-172.41,252.752-308.909
			c-15.157-55.393-69.879-107.652-146.182-116.574C138.96,21.331,79.156,96.689,79.156,152.297
			C79.156,209.971,151.668,200.543,151.668,237.667z"/>
		<path style="opacity:0.7;fill:#FFFFFF;" d="M151.668,237.667c0,43.614-55.646,82.842-77.091,121.877
			c-33.461,60.909,28.67,105.803,116.302,105.803c133.514,0,290.102-172.41,252.752-308.909
			c-15.157-55.393-69.879-107.652-146.182-116.574C138.96,21.331,79.156,96.689,79.156,152.297
			C79.156,209.971,151.668,200.543,151.668,237.667z"/>
	</g>
</g>
<g id="Windows">
	<g>
		<g>
			
				<rect x="349.009" y="167.345" style="fill:none;stroke:#263238;stroke-width:0.75;stroke-linecap:round;stroke-linejoin:round;stroke-miterlimit:10;" width="89.325" height="202.621"/>
			
				<rect x="356.851" y="175.187" style="fill:none;stroke:#263238;stroke-width:0.75;stroke-linecap:round;stroke-linejoin:round;stroke-miterlimit:10;" width="73.642" height="186.939"/>
			<g>
				
					<line style="fill:none;stroke:#263238;stroke-width:0.75;stroke-linecap:round;stroke-linejoin:round;stroke-miterlimit:10;" x1="365.224" y1="257.732" x2="363.211" y2="261.219"/>
				
					<line style="fill:none;stroke:#263238;stroke-width:0.75;stroke-linecap:round;stroke-linejoin:round;stroke-miterlimit:10;" x1="386.355" y1="221.132" x2="367.535" y2="253.729"/>
				
					<line style="fill:none;stroke:#263238;stroke-width:0.75;stroke-linecap:round;stroke-linejoin:round;stroke-miterlimit:10;" x1="403.632" y1="191.207" x2="389.372" y2="215.906"/>
				
					<line style="fill:none;stroke:#263238;stroke-width:0.75;stroke-linecap:round;stroke-linejoin:round;stroke-miterlimit:10;" x1="406.645" y1="185.988" x2="405.131" y2="188.612"/>
			</g>
			<g>
				
					<line style="fill:none;stroke:#263238;stroke-width:0.75;stroke-linecap:round;stroke-linejoin:round;stroke-miterlimit:10;" x1="371.213" y1="346.581" x2="369.504" y2="349.542"/>
				
					<line style="fill:none;stroke:#263238;stroke-width:0.75;stroke-linecap:round;stroke-linejoin:round;stroke-miterlimit:10;" x1="375.175" y1="339.72" x2="373.358" y2="342.866"/>
				
					<line style="fill:none;stroke:#263238;stroke-width:0.75;stroke-linecap:round;stroke-linejoin:round;stroke-miterlimit:10;" x1="399.323" y1="297.893" x2="379.046" y2="333.015"/>
				
					<line style="fill:none;stroke:#263238;stroke-width:0.75;stroke-linecap:round;stroke-linejoin:round;stroke-miterlimit:10;" x1="417.274" y1="266.801" x2="401.396" y2="294.304"/>
				
					<line style="fill:none;stroke:#263238;stroke-width:0.75;stroke-linecap:round;stroke-linejoin:round;stroke-miterlimit:10;" x1="421.201" y1="259.999" x2="419.629" y2="262.722"/>
			</g>
			<g>
				
					<line style="fill:none;stroke:#263238;stroke-width:0.75;stroke-linecap:round;stroke-linejoin:round;stroke-miterlimit:10;" x1="393.672" y1="324.208" x2="379.046" y2="349.542"/>
				
					<line style="fill:none;stroke:#263238;stroke-width:0.75;stroke-linecap:round;stroke-linejoin:round;stroke-miterlimit:10;" x1="412.369" y1="291.824" x2="395.804" y2="320.516"/>
				
					<line style="fill:none;stroke:#263238;stroke-width:0.75;stroke-linecap:round;stroke-linejoin:round;stroke-miterlimit:10;" x1="416.256" y1="285.092" x2="414.302" y2="288.477"/>
			</g>
			<g>
				
					<line style="fill:none;stroke:#263238;stroke-width:0.75;stroke-linecap:round;stroke-linejoin:round;stroke-miterlimit:10;" x1="363.211" y1="283.945" x2="360.986" y2="287.8"/>
				
					<line style="fill:none;stroke:#263238;stroke-width:0.75;stroke-linecap:round;stroke-linejoin:round;stroke-miterlimit:10;" x1="382.639" y1="250.296" x2="364.988" y2="280.868"/>
				
					<line style="fill:none;stroke:#263238;stroke-width:0.75;stroke-linecap:round;stroke-linejoin:round;stroke-miterlimit:10;" x1="406.886" y1="208.299" x2="384.722" y2="246.687"/>
				
					<line style="fill:none;stroke:#263238;stroke-width:0.75;stroke-linecap:round;stroke-linejoin:round;stroke-miterlimit:10;" x1="421.456" y1="183.063" x2="408.596" y2="205.336"/>
			</g>
		</g>
		<g>
			
				<rect x="61.666" y="167.345" style="fill:none;stroke:#263238;stroke-width:0.75;stroke-linecap:round;stroke-linejoin:round;stroke-miterlimit:10;" width="89.325" height="202.621"/>
			
				<rect x="69.507" y="175.187" style="fill:none;stroke:#263238;stroke-width:0.75;stroke-linecap:round;stroke-linejoin:round;stroke-miterlimit:10;" width="73.642" height="186.939"/>
			<g>
				
					<line style="fill:none;stroke:#263238;stroke-width:0.75;stroke-linecap:round;stroke-linejoin:round;stroke-miterlimit:10;" x1="77.88" y1="257.732" x2="75.867" y2="261.219"/>
				
					<line style="fill:none;stroke:#263238;stroke-width:0.75;stroke-linecap:round;stroke-linejoin:round;stroke-miterlimit:10;" x1="99.011" y1="221.132" x2="80.191" y2="253.729"/>
				
					<line style="fill:none;stroke:#263238;stroke-width:0.75;stroke-linecap:round;stroke-linejoin:round;stroke-miterlimit:10;" x1="116.288" y1="191.207" x2="102.028" y2="215.906"/>
				
					<line style="fill:none;stroke:#263238;stroke-width:0.75;stroke-linecap:round;stroke-linejoin:round;stroke-miterlimit:10;" x1="119.301" y1="185.988" x2="117.787" y2="188.612"/>
			</g>
			<g>
				
					<line style="fill:none;stroke:#263238;stroke-width:0.75;stroke-linecap:round;stroke-linejoin:round;stroke-miterlimit:10;" x1="83.869" y1="346.581" x2="82.16" y2="349.542"/>
				
					<line style="fill:none;stroke:#263238;stroke-width:0.75;stroke-linecap:round;stroke-linejoin:round;stroke-miterlimit:10;" x1="87.831" y1="339.72" x2="86.014" y2="342.866"/>
				
					<line style="fill:none;stroke:#263238;stroke-width:0.75;stroke-linecap:round;stroke-linejoin:round;stroke-miterlimit:10;" x1="111.979" y1="297.893" x2="91.702" y2="333.015"/>
				
					<line style="fill:none;stroke:#263238;stroke-width:0.75;stroke-linecap:round;stroke-linejoin:round;stroke-miterlimit:10;" x1="129.93" y1="266.801" x2="114.052" y2="294.304"/>
				
					<line style="fill:none;stroke:#263238;stroke-width:0.75;stroke-linecap:round;stroke-linejoin:round;stroke-miterlimit:10;" x1="133.857" y1="259.999" x2="132.285" y2="262.722"/>
			</g>
			<g>
				
					<line style="fill:none;stroke:#263238;stroke-width:0.75;stroke-linecap:round;stroke-linejoin:round;stroke-miterlimit:10;" x1="106.328" y1="324.208" x2="91.702" y2="349.542"/>
				
					<line style="fill:none;stroke:#263238;stroke-width:0.75;stroke-linecap:round;stroke-linejoin:round;stroke-miterlimit:10;" x1="125.025" y1="291.824" x2="108.46" y2="320.516"/>
				
					<line style="fill:none;stroke:#263238;stroke-width:0.75;stroke-linecap:round;stroke-linejoin:round;stroke-miterlimit:10;" x1="128.912" y1="285.092" x2="126.958" y2="288.477"/>
			</g>
			<g>
				
					<line style="fill:none;stroke:#263238;stroke-width:0.75;stroke-linecap:round;stroke-linejoin:round;stroke-miterlimit:10;" x1="75.867" y1="283.945" x2="73.642" y2="287.8"/>
				
					<line style="fill:none;stroke:#263238;stroke-width:0.75;stroke-linecap:round;stroke-linejoin:round;stroke-miterlimit:10;" x1="95.295" y1="250.296" x2="77.644" y2="280.868"/>
				
					<line style="fill:none;stroke:#263238;stroke-width:0.75;stroke-linecap:round;stroke-linejoin:round;stroke-miterlimit:10;" x1="119.542" y1="208.299" x2="97.378" y2="246.687"/>
				
					<line style="fill:none;stroke:#263238;stroke-width:0.75;stroke-linecap:round;stroke-linejoin:round;stroke-miterlimit:10;" x1="134.112" y1="183.063" x2="121.252" y2="205.336"/>
			</g>
		</g>
	</g>
</g>
<g id="Floor">
	<g id="freepik--Table--inject-4_2_">
		
			<line style="fill:none;stroke:#263238;stroke-linecap:round;stroke-linejoin:round;" x1="29.5" y1="454.431" x2="470.5" y2="454.431"/>
	</g>
</g>
<g id="Shelf">
	<g>
		<g>
			<g>
				<g>
					<rect x="175.045" y="375.212" style="fill:#92E3A9;" width="7.652" height="26.014"/>
					<rect x="175.045" y="375.212" style="opacity:0.2;" width="7.652" height="26.014"/>
				</g>
				<rect x="182.697" y="378.071" style="fill:#92E3A9;" width="7.652" height="23.154"/>
				<g>
					<rect x="194.504" y="378.071" style="fill:#92E3A9;" width="5.402" height="23.154"/>
					<rect x="194.504" y="378.071" style="opacity:0.9;fill:#FFFFFF;" width="5.402" height="23.154"/>
				</g>
				<g>
					<rect x="189.608" y="375.627" style="fill:#92E3A9;" width="4.896" height="25.598"/>
					<rect x="189.608" y="375.627" style="opacity:0.1;" width="4.896" height="25.598"/>
				</g>
				<g>
					<rect x="199.906" y="375.212" style="fill:#92E3A9;" width="7.652" height="26.014"/>
				</g>
				<g>
					<rect x="207.558" y="378.071" style="fill:#92E3A9;" width="7.652" height="23.154"/>
					<rect x="207.558" y="378.071" style="opacity:0.2;fill:#263238;" width="7.652" height="23.154"/>
				</g>
				<g>
					<rect x="219.365" y="378.071" style="fill:#92E3A9;" width="5.402" height="23.154"/>
					<rect x="219.365" y="378.071" style="opacity:0.8;fill:#FFFFFF;" width="5.402" height="23.154"/>
				</g>
				<g>
					<rect x="214.469" y="375.627" style="fill:#92E3A9;" width="4.896" height="25.598"/>
					<rect x="214.469" y="375.627" style="opacity:0.1;" width="4.896" height="25.598"/>
				</g>
			</g>
			<g>
				<g>
					
						<rect x="261.262" y="375.212" transform="matrix(-1 -1.224647e-16 1.224647e-16 -1 530.1768 776.4368)" style="fill:#92E3A9;" width="7.652" height="26.014"/>
					
						<rect x="261.262" y="375.212" transform="matrix(-1 -1.224647e-16 1.224647e-16 -1 530.1768 776.4368)" style="opacity:0.2;" width="7.652" height="26.014"/>
				</g>
				
					<rect x="253.61" y="378.071" transform="matrix(-1 -1.224647e-16 1.224647e-16 -1 514.8728 779.296)" style="fill:#92E3A9;" width="7.652" height="23.154"/>
				<g>
					
						<rect x="244.053" y="378.071" transform="matrix(-1 -1.224647e-16 1.224647e-16 -1 493.5085 779.296)" style="fill:#92E3A9;" width="5.402" height="23.154"/>
					
						<rect x="244.053" y="378.071" transform="matrix(-1 -1.224647e-16 1.224647e-16 -1 493.5085 779.296)" style="opacity:0.9;fill:#FFFFFF;" width="5.402" height="23.154"/>
				</g>
				<g>
					
						<rect x="249.455" y="375.627" transform="matrix(-1 -1.224647e-16 1.224647e-16 -1 503.8065 776.8526)" style="fill:#92E3A9;" width="4.896" height="25.598"/>
					
						<rect x="249.455" y="375.627" transform="matrix(-1 -1.224647e-16 1.224647e-16 -1 503.8065 776.8526)" style="opacity:0.1;" width="4.896" height="25.598"/>
				</g>
				<g>
					
						<rect x="236.401" y="375.212" transform="matrix(-1 -1.224647e-16 1.224647e-16 -1 480.4542 776.4368)" style="fill:#92E3A9;" width="7.652" height="26.014"/>
				</g>
				<g>
					
						<rect x="228.749" y="378.071" transform="matrix(-1 -1.224647e-16 1.224647e-16 -1 465.1502 779.296)" style="fill:#92E3A9;" width="7.652" height="23.154"/>
					
						<rect x="228.749" y="378.071" transform="matrix(-1 -1.224647e-16 1.224647e-16 -1 465.1502 779.296)" style="opacity:0.2;fill:#263238;" width="7.652" height="23.154"/>
				</g>
				<g>
					
						<rect x="224.594" y="375.627" transform="matrix(-1 -1.224647e-16 1.224647e-16 -1 454.084 776.8526)" style="fill:#92E3A9;" width="4.896" height="25.598"/>
					
						<rect x="224.594" y="375.627" transform="matrix(-1 -1.224647e-16 1.224647e-16 -1 454.084 776.8526)" style="opacity:0.1;" width="4.896" height="25.598"/>
				</g>
			</g>
			<g>
				
					<rect x="305.362" y="375.212" transform="matrix(-1 -1.224647e-16 1.224647e-16 -1 618.3768 776.4368)" style="fill:#92E3A9;" width="7.652" height="26.014"/>
				
					<rect x="305.362" y="375.212" transform="matrix(-1 -1.224647e-16 1.224647e-16 -1 618.3768 776.4368)" style="opacity:0.2;" width="7.652" height="26.014"/>
			</g>
			
				<rect x="297.71" y="378.071" transform="matrix(-1 -1.224647e-16 1.224647e-16 -1 603.0728 779.296)" style="fill:#92E3A9;" width="7.652" height="23.154"/>
			<g>
				
					<rect x="288.153" y="378.071" transform="matrix(-1 -1.224647e-16 1.224647e-16 -1 581.7085 779.296)" style="fill:#92E3A9;" width="5.402" height="23.154"/>
				
					<rect x="288.153" y="378.071" transform="matrix(-1 -1.224647e-16 1.224647e-16 -1 581.7085 779.296)" style="opacity:0.9;fill:#FFFFFF;" width="5.402" height="23.154"/>
			</g>
			<g>
				
					<rect x="293.555" y="375.627" transform="matrix(-1 -1.224647e-16 1.224647e-16 -1 592.0065 776.8526)" style="fill:#92E3A9;" width="4.896" height="25.598"/>
				
					<rect x="293.555" y="375.627" transform="matrix(-1 -1.224647e-16 1.224647e-16 -1 592.0065 776.8526)" style="opacity:0.1;" width="4.896" height="25.598"/>
			</g>
			<g>
				
					<rect x="280.501" y="375.212" transform="matrix(-1 -1.224647e-16 1.224647e-16 -1 568.6542 776.4368)" style="fill:#92E3A9;" width="7.652" height="26.014"/>
			</g>
			<g>
				
					<rect x="316.303" y="375.212" transform="matrix(-0.9659 0.2588 -0.2588 -0.9659 727.3881 680.6816)" style="fill:#92E3A9;" width="5.175" height="26.014"/>
			</g>
			<g>
				
					<rect x="272.849" y="378.071" transform="matrix(-1 -1.224647e-16 1.224647e-16 -1 553.3502 779.296)" style="fill:#92E3A9;" width="7.652" height="23.154"/>
				
					<rect x="272.849" y="378.071" transform="matrix(-1 -1.224647e-16 1.224647e-16 -1 553.3502 779.296)" style="opacity:0.2;fill:#263238;" width="7.652" height="23.154"/>
			</g>
			<g>
				
					<rect x="268.694" y="375.627" transform="matrix(-1 -1.224647e-16 1.224647e-16 -1 542.284 776.8526)" style="fill:#92E3A9;" width="4.896" height="25.598"/>
				
					<rect x="268.694" y="375.627" transform="matrix(-1 -1.224647e-16 1.224647e-16 -1 542.284 776.8526)" style="opacity:0.1;" width="4.896" height="25.598"/>
			</g>
		</g>
		<g>
			<g>
				<g>
					
						<rect x="317.105" y="408.756" transform="matrix(-0.9659 0.2588 -0.2588 -0.9659 737.7859 746.3974)" style="fill:#92E3A9;" width="5.315" height="26.013"/>
					
						<rect x="317.105" y="408.756" transform="matrix(-0.9659 0.2588 -0.2588 -0.9659 737.7859 746.3974)" style="opacity:0.2;" width="5.315" height="26.013"/>
				</g>
				
					<rect x="307.353" y="411.615" transform="matrix(-1 -1.224647e-16 1.224647e-16 -1 622.3574 846.3845)" style="fill:#92E3A9;" width="7.652" height="23.154"/>
				<g>
					
						<rect x="297.795" y="411.615" transform="matrix(-1 -1.224647e-16 1.224647e-16 -1 600.993 846.3845)" style="fill:#92E3A9;" width="5.402" height="23.154"/>
					
						<rect x="297.795" y="411.615" transform="matrix(-1 -1.224647e-16 1.224647e-16 -1 600.993 846.3845)" style="opacity:0.9;fill:#FFFFFF;" width="5.402" height="23.154"/>
				</g>
				<g>
					
						<rect x="303.198" y="409.172" transform="matrix(-1 -1.224647e-16 1.224647e-16 -1 611.291 843.9411)" style="fill:#92E3A9;" width="4.896" height="25.598"/>
					
						<rect x="303.198" y="409.172" transform="matrix(-1 -1.224647e-16 1.224647e-16 -1 611.291 843.9411)" style="opacity:0.1;" width="4.896" height="25.598"/>
				</g>
				<g>
					
						<rect x="290.143" y="408.756" transform="matrix(-1 -1.224647e-16 1.224647e-16 -1 587.9388 843.5253)" style="fill:#92E3A9;" width="7.652" height="26.014"/>
				</g>
				<g>
					
						<rect x="282.491" y="411.615" transform="matrix(-1 -1.224647e-16 1.224647e-16 -1 572.6348 846.3845)" style="fill:#92E3A9;" width="7.652" height="23.154"/>
					
						<rect x="282.491" y="411.615" transform="matrix(-1 -1.224647e-16 1.224647e-16 -1 572.6348 846.3845)" style="opacity:0.2;fill:#263238;" width="7.652" height="23.154"/>
				</g>
				<g>
					
						<rect x="272.934" y="411.615" transform="matrix(-1 -1.224647e-16 1.224647e-16 -1 551.2706 846.3845)" style="fill:#92E3A9;" width="5.402" height="23.154"/>
					
						<rect x="272.934" y="411.615" transform="matrix(-1 -1.224647e-16 1.224647e-16 -1 551.2706 846.3845)" style="opacity:0.8;fill:#FFFFFF;" width="5.402" height="23.154"/>
				</g>
				<g>
					
						<rect x="278.336" y="409.172" transform="matrix(-1 -1.224647e-16 1.224647e-16 -1 561.5685 843.9411)" style="fill:#92E3A9;" width="4.896" height="25.598"/>
					
						<rect x="278.336" y="409.172" transform="matrix(-1 -1.224647e-16 1.224647e-16 -1 561.5685 843.9411)" style="opacity:0.1;" width="4.896" height="25.598"/>
				</g>
			</g>
			<g>
				<g>
					<rect x="228.787" y="408.756" style="fill:#92E3A9;" width="7.652" height="26.014"/>
					<rect x="228.787" y="408.756" style="opacity:0.2;" width="7.652" height="26.014"/>
				</g>
				<rect x="236.439" y="411.615" style="fill:#92E3A9;" width="7.652" height="23.154"/>
				<g>
					<rect x="248.246" y="411.615" style="fill:#92E3A9;" width="5.402" height="23.154"/>
					<rect x="248.246" y="411.615" style="opacity:0.9;fill:#FFFFFF;" width="5.402" height="23.154"/>
				</g>
				<g>
					<rect x="243.35" y="409.172" style="fill:#92E3A9;" width="4.896" height="25.598"/>
					<rect x="243.35" y="409.172" style="opacity:0.1;" width="4.896" height="25.598"/>
				</g>
				<g>
					<rect x="253.648" y="408.756" style="fill:#92E3A9;" width="7.652" height="26.014"/>
				</g>
				<g>
					<rect x="261.3" y="411.615" style="fill:#92E3A9;" width="7.652" height="23.154"/>
					<rect x="261.3" y="411.615" style="opacity:0.2;fill:#263238;" width="7.652" height="23.154"/>
				</g>
				<g>
					<rect x="268.212" y="409.172" style="fill:#92E3A9;" width="4.896" height="25.598"/>
					<rect x="268.212" y="409.172" style="opacity:0.1;" width="4.896" height="25.598"/>
				</g>
			</g>
			<g>
				<rect x="184.687" y="408.756" style="fill:#92E3A9;" width="7.652" height="26.014"/>
				<rect x="184.687" y="408.756" style="opacity:0.2;" width="7.652" height="26.014"/>
			</g>
			<rect x="192.339" y="411.615" style="fill:#92E3A9;" width="7.652" height="23.154"/>
			<g>
				<rect x="204.146" y="411.615" style="fill:#92E3A9;" width="5.402" height="23.154"/>
				<rect x="204.146" y="411.615" style="opacity:0.9;fill:#FFFFFF;" width="5.402" height="23.154"/>
			</g>
			<g>
				<rect x="199.25" y="409.172" style="fill:#92E3A9;" width="4.896" height="25.598"/>
				<rect x="199.25" y="409.172" style="opacity:0.1;" width="4.896" height="25.598"/>
			</g>
			<g>
				<rect x="209.548" y="408.756" style="fill:#92E3A9;" width="7.652" height="26.014"/>
			</g>
			<g>
				
					<rect x="176.223" y="408.756" transform="matrix(0.9659 0.2588 -0.2588 0.9659 115.2526 -31.9084)" style="fill:#92E3A9;" width="5.175" height="26.013"/>
			</g>
			<g>
				<rect x="217.2" y="411.615" style="fill:#92E3A9;" width="7.652" height="23.154"/>
				<rect x="217.2" y="411.615" style="opacity:0.2;fill:#263238;" width="7.652" height="23.154"/>
			</g>
			<g>
				<rect x="224.112" y="409.172" style="fill:#92E3A9;" width="4.896" height="25.598"/>
				<rect x="224.112" y="409.172" style="opacity:0.1;" width="4.896" height="25.598"/>
			</g>
		</g>
		<g>
			<g>
				<polygon style="fill:#263238;" points="180.921,454.431 173.27,454.431 172.219,439.63 181.971,439.63 				"/>
				<polygon style="fill:#263238;" points="326.731,454.431 319.079,454.431 318.029,439.63 327.781,439.63 				"/>
			</g>
			<path style="fill:#FFFFFF;stroke:#263238;stroke-width:0.75;stroke-linecap:round;stroke-linejoin:round;" d="M335.157,365.387
				H164.843c-2.03,0-3.675,1.646-3.675,3.675v69.577c0,2.029,1.645,3.675,3.675,3.675h170.314c2.029,0,3.675-1.646,3.675-3.675
				v-69.577C338.832,367.033,337.186,365.387,335.157,365.387z M331.482,372.737v28.488H168.518v-28.488H331.482z M168.518,434.964
				v-28.488h162.964v28.488H168.518z"/>
		</g>
	</g>
</g>
<g id="Task">
	<g>
		<path style="fill:#263238;stroke:#263238;stroke-linecap:round;stroke-linejoin:round;" d="M309.976,258.268H192.124
			c-3.787,0-6.857-3.07-6.857-6.857v-25.31c0-3.787,3.07-6.857,6.857-6.857h117.853c3.787,0,6.857,3.07,6.857,6.857v25.31
			C316.834,255.198,313.763,258.268,309.976,258.268z"/>
		<path style="fill:#FFFFFF;stroke:#263238;stroke-linecap:round;stroke-linejoin:round;" d="M307.876,256.168H190.024
			c-3.787,0-6.857-3.07-6.857-6.857v-25.31c0-3.787,3.07-6.857,6.857-6.857h117.853c3.787,0,6.857,3.07,6.857,6.857v25.31
			C314.734,253.098,311.663,256.168,307.876,256.168z"/>
		<path style="fill:none;stroke:#263238;stroke-linecap:round;stroke-linejoin:round;" d="M307.876,256.168H190.024
			c-3.787,0-6.857-3.07-6.857-6.857v-25.31c0-3.787,3.07-6.857,6.857-6.857h117.853c3.787,0,6.857,3.07,6.857,6.857v25.31
			C314.734,253.098,311.663,256.168,307.876,256.168z"/>
		<g>
			<g>
				<defs>
					<polygon id="XMLID_70_" points="212.298,248.173 194.973,248.173 194.973,226.251 206.523,226.251 212.298,232.027 					"/>
				</defs>
				<use xlink:href="#XMLID_70_"  style="overflow:visible;fill:#92E3A9;"/>
				<clipPath id="XMLID_00000056394281348597901930000006940103785377516194_">
					<use xlink:href="#XMLID_70_"  style="overflow:visible;"/>
				</clipPath>
				
					<polygon style="opacity:0.5;clip-path:url(#XMLID_00000056394281348597901930000006940103785377516194_);fill:#FFFFFF;" points="
					212.298,248.173 194.973,248.173 194.973,226.251 206.523,226.251 212.298,232.027 				"/>
				
					<use xlink:href="#XMLID_70_"  style="overflow:visible;fill:none;stroke:#263238;stroke-linecap:round;stroke-linejoin:round;"/>
			</g>
			<polygon style="fill:#92E3A9;stroke:#263238;stroke-linecap:round;stroke-linejoin:round;" points="206.523,232.027 
				212.298,232.027 206.523,226.251 			"/>
			<g>
				
					<path style="fill:#858585;stroke:#263238;stroke-width:0.75;stroke-linecap:round;stroke-linejoin:round;stroke-miterlimit:10;" d="
					M198.823,237.881c-0.604,0-1.094-0.49-1.094-1.094c0-0.604,0.49-1.094,1.094-1.094h9.625c0.604,0,1.094,0.49,1.094,1.094
					c0,0.604-0.49,1.094-1.094,1.094H198.823z"/>
				
					<path style="fill:#858585;stroke:#263238;stroke-width:0.75;stroke-linecap:round;stroke-linejoin:round;stroke-miterlimit:10;" d="
					M198.823,242.487c-0.604,0-1.094-0.49-1.094-1.094c0-0.604,0.49-1.094,1.094-1.094h7.525c0.604,0,1.094,0.49,1.094,1.094
					c0,0.604-0.49,1.094-1.094,1.094H198.823z"/>
			</g>
		</g>
		<g>
			<defs>
				<path id="XMLID_73_" d="M223.859,243.666c-1.25,0-2.263-1.013-2.263-2.263s1.013-2.263,2.263-2.263h76.804
					c1.25,0,2.263,1.013,2.263,2.263s-1.013,2.263-2.263,2.263H223.859z"/>
			</defs>
			<clipPath id="XMLID_00000132777877272093274940000016198429422422506678_">
				<use xlink:href="#XMLID_73_"  style="overflow:visible;"/>
			</clipPath>
			
				<rect x="218.414" y="234.699" style="clip-path:url(#XMLID_00000132777877272093274940000016198429422422506678_);fill:#92E3A9;" width="37.574" height="13.701"/>
			<use xlink:href="#XMLID_73_"  style="overflow:visible;fill:none;stroke:#263238;stroke-linecap:round;stroke-linejoin:round;"/>
		</g>
		<g>
			<path style="fill:#263238;" d="M256.838,233.012h-2.426v-1.155l2.311-5.463h1.386v5.463h0.601v1.155h-0.601v1.467h-1.271V233.012
				z M256.838,231.857v-3.153h-0.022l-1.248,3.153H256.838z"/>
			<path style="fill:#263238;" d="M259.298,232.561v-0.635h1.202v0.728c0,0.578,0.254,0.786,0.658,0.786s0.658-0.208,0.658-0.786
				v-1.814c0-0.578-0.254-0.797-0.658-0.797s-0.658,0.219-0.658,0.797v0.069h-1.202l0.231-4.516h3.35v1.155h-2.218l-0.104,1.929
				h0.023c0.231-0.381,0.59-0.589,1.098-0.589c0.936,0,1.409,0.659,1.409,1.848v1.825c0,1.294-0.646,2.033-1.895,2.033
				C259.945,234.594,259.298,233.855,259.298,232.561z"/>
			<path style="fill:#263238;" d="M263.884,229.592v-2.021c0-0.832,0.428-1.294,1.225-1.294s1.225,0.462,1.225,1.294v2.021
				c0,0.832-0.428,1.294-1.225,1.294S263.884,230.424,263.884,229.592z M265.524,229.651v-2.137c0-0.358-0.162-0.508-0.416-0.508
				c-0.266,0-0.416,0.15-0.416,0.508v2.137c0,0.358,0.15,0.508,0.416,0.508C265.362,230.159,265.524,230.008,265.524,229.651z
				 M268.042,226.393h0.809l-3.13,8.085h-0.809L268.042,226.393z M267.43,233.301v-2.021c0-0.832,0.428-1.294,1.225-1.294
				s1.225,0.462,1.225,1.294v2.021c0,0.831-0.428,1.294-1.225,1.294S267.43,234.132,267.43,233.301z M269.07,233.358v-2.137
				c0-0.358-0.162-0.508-0.416-0.508c-0.266,0-0.416,0.15-0.416,0.508v2.137c0,0.358,0.15,0.508,0.416,0.508
				C268.908,233.866,269.07,233.717,269.07,233.358z"/>
		</g>
	</g>
	<g>
		<path style="fill:#263238;stroke:#263238;stroke-linecap:round;stroke-linejoin:round;" d="M309.976,303.549H192.124
			c-3.787,0-6.857-3.07-6.857-6.857v-25.31c0-3.787,3.07-6.857,6.857-6.857h117.853c3.787,0,6.857,3.07,6.857,6.857v25.31
			C316.834,300.479,313.763,303.549,309.976,303.549z"/>
		<path style="fill:#FFFFFF;stroke:#263238;stroke-linecap:round;stroke-linejoin:round;" d="M307.876,301.449H190.024
			c-3.787,0-6.857-3.07-6.857-6.857v-25.31c0-3.787,3.07-6.857,6.857-6.857h117.853c3.787,0,6.857,3.07,6.857,6.857v25.31
			C314.734,298.379,311.663,301.449,307.876,301.449z"/>
		<g>
			<defs>
				<path id="XMLID_74_" d="M223.859,288.666c-1.25,0-2.263-1.013-2.263-2.263c0-1.25,1.013-2.263,2.263-2.263h76.804
					c1.25,0,2.263,1.013,2.263,2.263c0,1.25-1.013,2.263-2.263,2.263H223.859z"/>
			</defs>
			<clipPath id="XMLID_00000109717951276823624480000013311957169748978098_">
				<use xlink:href="#XMLID_74_"  style="overflow:visible;"/>
			</clipPath>
			
				<rect x="219.202" y="281.937" style="clip-path:url(#XMLID_00000109717951276823624480000013311957169748978098_);fill:#92E3A9;" width="62.475" height="11.291"/>
			<use xlink:href="#XMLID_74_"  style="overflow:visible;fill:none;stroke:#263238;stroke-linecap:round;stroke-linejoin:round;"/>
		</g>
		<g>
			<path style="fill:#263238;" d="M254.563,277.596v-0.716c0-0.774,0.231-1.34,0.832-1.652v-0.023
				c-0.531-0.289-0.785-0.797-0.785-1.594v-0.335c0-1.294,0.704-1.999,1.94-1.999c1.235,0,1.94,0.705,1.94,1.999v0.335
				c0,0.797-0.266,1.305-0.786,1.594v0.023c0.601,0.312,0.832,0.878,0.832,1.652v0.716c0,1.294-0.704,1.998-1.986,1.998
				C255.268,279.594,254.563,278.89,254.563,277.596z M257.266,277.527v-0.774c0-0.612-0.242-0.913-0.716-0.913
				s-0.717,0.3-0.717,0.913v0.774c0,0.612,0.243,0.912,0.717,0.912S257.266,278.139,257.266,277.527z M257.22,273.877v-0.635
				c0-0.532-0.231-0.809-0.67-0.809c-0.439,0-0.67,0.277-0.67,0.809v0.635c0,0.531,0.23,0.809,0.67,0.809
				C256.988,274.685,257.22,274.408,257.22,273.877z"/>
			<path style="fill:#263238;" d="M259.298,277.561v-0.635h1.202v0.728c0,0.578,0.254,0.785,0.658,0.785s0.658-0.207,0.658-0.785
				v-1.814c0-0.578-0.254-0.797-0.658-0.797s-0.658,0.219-0.658,0.797v0.069h-1.202l0.231-4.516h3.35v1.155h-2.218l-0.104,1.929
				h0.023c0.231-0.381,0.59-0.589,1.098-0.589c0.936,0,1.409,0.659,1.409,1.848v1.825c0,1.294-0.646,2.033-1.895,2.033
				C259.945,279.594,259.298,278.855,259.298,277.561z"/>
			<path style="fill:#263238;" d="M263.884,274.592v-2.021c0-0.832,0.428-1.294,1.225-1.294s1.225,0.462,1.225,1.294v2.021
				c0,0.832-0.428,1.294-1.225,1.294S263.884,275.424,263.884,274.592z M265.524,274.651v-2.137c0-0.358-0.162-0.508-0.416-0.508
				c-0.266,0-0.416,0.15-0.416,0.508v2.137c0,0.358,0.15,0.508,0.416,0.508C265.362,275.159,265.524,275.009,265.524,274.651z
				 M268.042,271.393h0.809l-3.13,8.085h-0.809L268.042,271.393z M267.43,278.301v-2.022c0-0.832,0.428-1.293,1.225-1.293
				s1.225,0.462,1.225,1.293v2.022c0,0.831-0.428,1.293-1.225,1.293S267.43,279.132,267.43,278.301z M269.07,278.359v-2.137
				c0-0.358-0.162-0.508-0.416-0.508c-0.266,0-0.416,0.15-0.416,0.508v2.137c0,0.357,0.15,0.508,0.416,0.508
				C268.908,278.866,269.07,278.716,269.07,278.359z"/>
		</g>
		<g>
			<g>
				<defs>
					<polygon id="XMLID_71_" points="212.298,293.174 194.973,293.174 194.973,271.251 206.523,271.251 212.298,277.026 					"/>
				</defs>
				<use xlink:href="#XMLID_71_"  style="overflow:visible;fill:#92E3A9;"/>
				<clipPath id="XMLID_00000174592350257441568060000015416130817967634075_">
					<use xlink:href="#XMLID_71_"  style="overflow:visible;"/>
				</clipPath>
				
					<polygon style="opacity:0.5;clip-path:url(#XMLID_00000174592350257441568060000015416130817967634075_);fill:#FFFFFF;stroke:#263238;stroke-linecap:round;stroke-linejoin:round;" points="
					212.298,293.174 194.973,293.174 194.973,271.251 206.523,271.251 212.298,277.026 				"/>
				
					<use xlink:href="#XMLID_71_"  style="overflow:visible;fill:none;stroke:#263238;stroke-linecap:round;stroke-linejoin:round;"/>
			</g>
			<g>
				
					<path style="fill:#858585;stroke:#263238;stroke-width:0.75;stroke-linecap:round;stroke-linejoin:round;stroke-miterlimit:10;" d="
					M198.823,282.881c-0.604,0-1.094-0.49-1.094-1.094c0-0.604,0.49-1.094,1.094-1.094h9.625c0.604,0,1.094,0.49,1.094,1.094
					c0,0.604-0.49,1.094-1.094,1.094H198.823z"/>
				
					<path style="fill:#858585;stroke:#263238;stroke-width:0.75;stroke-linecap:round;stroke-linejoin:round;stroke-miterlimit:10;" d="
					M198.823,287.487c-0.604,0-1.094-0.49-1.094-1.094c0-0.604,0.49-1.094,1.094-1.094h7.525c0.604,0,1.094,0.49,1.094,1.094
					c0,0.604-0.49,1.094-1.094,1.094H198.823z"/>
			</g>
			<polygon style="fill:#92E3A9;stroke:#263238;stroke-linecap:round;stroke-linejoin:round;" points="206.523,277.026 
				212.298,277.026 206.523,271.251 			"/>
		</g>
	</g>
	<g>
		<path style="fill:#263238;stroke:#263238;stroke-linecap:round;stroke-linejoin:round;" d="M309.976,348.831H192.124
			c-3.787,0-6.857-3.07-6.857-6.857v-25.31c0-3.787,3.07-6.857,6.857-6.857h117.853c3.787,0,6.857,3.07,6.857,6.857v25.31
			C316.834,345.761,313.763,348.831,309.976,348.831z"/>
		<path style="fill:#FFFFFF;stroke:#263238;stroke-linecap:round;stroke-linejoin:round;" d="M307.876,346.731H190.024
			c-3.787,0-6.857-3.07-6.857-6.857v-25.31c0-3.787,3.07-6.857,6.857-6.857h117.853c3.787,0,6.857,3.07,6.857,6.857v25.31
			C314.734,343.661,311.663,346.731,307.876,346.731z"/>
		<g>
			<defs>
				<path id="XMLID_75_" d="M223.859,333.672c-1.25,0-2.263-1.013-2.263-2.263s1.013-2.263,2.263-2.263h76.804
					c1.25,0,2.263,1.013,2.263,2.263s-1.013,2.263-2.263,2.263H223.859z"/>
			</defs>
			<clipPath id="XMLID_00000080920565159097607710000014099722758599111078_">
				<use xlink:href="#XMLID_75_"  style="overflow:visible;"/>
			</clipPath>
			
				<rect x="217.889" y="325.699" style="clip-path:url(#XMLID_00000080920565159097607710000014099722758599111078_);fill:#92E3A9;" width="58.653" height="10.532"/>
			<use xlink:href="#XMLID_75_"  style="overflow:visible;fill:none;stroke:#263238;stroke-linecap:round;stroke-linejoin:round;"/>
		</g>
		<g>
			<path style="fill:#263238;" d="M257.196,317.554h-2.564v-1.155h3.812v1.109l-1.986,6.977h-1.294L257.196,317.554z"/>
			<path style="fill:#263238;" d="M259.24,322.568v-4.251c0-1.294,0.682-2.033,1.93-2.033c1.247,0,1.929,0.739,1.929,2.033v4.251
				c0,1.293-0.682,2.032-1.929,2.032C259.922,324.6,259.24,323.861,259.24,322.568z M261.828,322.648v-4.412
				c0-0.577-0.254-0.797-0.658-0.797s-0.659,0.22-0.659,0.797v4.412c0,0.578,0.255,0.797,0.659,0.797
				S261.828,323.226,261.828,322.648z"/>
			<path style="fill:#263238;" d="M263.884,319.599v-2.021c0-0.832,0.428-1.294,1.225-1.294s1.225,0.462,1.225,1.294v2.021
				c0,0.831-0.428,1.293-1.225,1.293S263.884,320.43,263.884,319.599z M265.524,319.656v-2.137c0-0.358-0.162-0.509-0.416-0.509
				c-0.266,0-0.416,0.15-0.416,0.509v2.137c0,0.358,0.15,0.508,0.416,0.508C265.362,320.164,265.524,320.015,265.524,319.656z
				 M268.042,316.398h0.809l-3.13,8.086h-0.809L268.042,316.398z M267.43,323.307v-2.021c0-0.832,0.428-1.294,1.225-1.294
				s1.225,0.462,1.225,1.294v2.021c0,0.831-0.428,1.293-1.225,1.293S267.43,324.138,267.43,323.307z M269.07,323.365v-2.138
				c0-0.358-0.162-0.508-0.416-0.508c-0.266,0-0.416,0.15-0.416,0.508v2.138c0,0.357,0.15,0.508,0.416,0.508
				C268.908,323.872,269.07,323.722,269.07,323.365z"/>
		</g>
		<g>
			<g>
				<defs>
					<polygon id="XMLID_72_" points="212.298,338.179 194.973,338.179 194.973,316.257 206.523,316.257 212.298,322.032 					"/>
				</defs>
				<use xlink:href="#XMLID_72_"  style="overflow:visible;fill:#92E3A9;"/>
				<clipPath id="XMLID_00000069397515837903312390000018224188089174853564_">
					<use xlink:href="#XMLID_72_"  style="overflow:visible;"/>
				</clipPath>
				
					<polygon style="opacity:0.5;clip-path:url(#XMLID_00000069397515837903312390000018224188089174853564_);fill:#FFFFFF;" points="
					212.298,338.179 194.973,338.179 194.973,316.257 206.523,316.257 212.298,322.032 				"/>
				
					<use xlink:href="#XMLID_72_"  style="overflow:visible;fill:none;stroke:#263238;stroke-linecap:round;stroke-linejoin:round;"/>
			</g>
			<g>
				
					<path style="fill:#858585;stroke:#263238;stroke-width:0.75;stroke-linecap:round;stroke-linejoin:round;stroke-miterlimit:10;" d="
					M198.823,327.886c-0.604,0-1.094-0.49-1.094-1.094c0-0.604,0.49-1.094,1.094-1.094h9.625c0.604,0,1.094,0.49,1.094,1.094
					c0,0.604-0.49,1.094-1.094,1.094H198.823z"/>
				
					<path style="fill:#858585;stroke:#263238;stroke-width:0.75;stroke-linecap:round;stroke-linejoin:round;stroke-miterlimit:10;" d="
					M198.823,332.493c-0.604,0-1.094-0.49-1.094-1.094c0-0.604,0.49-1.094,1.094-1.094h7.525c0.604,0,1.094,0.49,1.094,1.094
					c0,0.604-0.49,1.094-1.094,1.094H198.823z"/>
			</g>
			<polygon style="fill:#92E3A9;stroke:#263238;stroke-linecap:round;stroke-linejoin:round;" points="206.523,322.032 
				212.298,322.032 206.523,316.257 			"/>
		</g>
	</g>
	<g>
		<path style="fill:#263238;stroke:#263238;stroke-linecap:round;stroke-linejoin:round;" d="M326.093,207.366H176.007
			c-3.787,0-6.857-3.07-6.857-6.857v-34.871c0-3.787,3.07-6.857,6.857-6.857h150.086c3.787,0,6.857,3.07,6.857,6.857v34.871
			C332.95,204.296,329.88,207.366,326.093,207.366z"/>
		<path style="fill:#FFFFFF;stroke:#263238;stroke-linecap:round;stroke-linejoin:round;" d="M323.993,205.266H173.907
			c-3.787,0-6.857-3.07-6.857-6.857v-34.871c0-3.787,3.07-6.857,6.857-6.857h150.086c3.787,0,6.857,3.07,6.857,6.857v34.871
			C330.85,202.196,327.78,205.266,323.993,205.266z"/>
		<g>
			<path style="fill:#263238;" d="M236.84,179.684h-1.811v-1.228c1.464,0,1.984-0.315,2.378-1.386h1.165v11.023h-1.732V179.684z"/>
			<path style="fill:#263238;" d="M240.588,185.479v-5.795c0-1.764,0.929-2.772,2.63-2.772c1.701,0,2.63,1.008,2.63,2.772v5.795
				c0,1.764-0.929,2.771-2.63,2.771C241.518,188.25,240.588,187.242,240.588,185.479z M244.116,185.589v-6.015
				c0-0.788-0.346-1.086-0.897-1.086c-0.551,0-0.897,0.299-0.897,1.086v6.015c0,0.788,0.346,1.087,0.897,1.087
				C243.77,186.676,244.116,186.377,244.116,185.589z"/>
			<path style="fill:#263238;" d="M246.888,185.479v-5.795c0-1.764,0.929-2.772,2.63-2.772s2.629,1.008,2.629,2.772v5.795
				c0,1.764-0.929,2.771-2.629,2.771S246.888,187.242,246.888,185.479z M250.415,185.589v-6.015c0-0.788-0.346-1.086-0.897-1.086
				c-0.551,0-0.898,0.299-0.898,1.086v6.015c0,0.788,0.346,1.087,0.898,1.087C250.069,186.676,250.415,186.377,250.415,185.589z"/>
			<path style="fill:#263238;" d="M253.22,181.432v-2.756c0-1.134,0.583-1.764,1.67-1.764c1.086,0,1.669,0.63,1.669,1.764v2.756
				c0,1.134-0.583,1.764-1.669,1.764C253.803,183.195,253.22,182.566,253.22,181.432z M255.456,181.511v-2.913
				c0-0.488-0.221-0.693-0.567-0.693c-0.362,0-0.567,0.205-0.567,0.693v2.913c0,0.488,0.205,0.692,0.567,0.692
				C255.235,182.203,255.456,181.999,255.456,181.511z M258.889,177.07h1.102l-4.268,11.023h-1.102L258.889,177.07z
				 M258.055,186.486v-2.755c0-1.134,0.582-1.764,1.669-1.764c1.087,0,1.669,0.63,1.669,1.764v2.755
				c0,1.134-0.582,1.764-1.669,1.764C258.637,188.25,258.055,187.62,258.055,186.486z M260.291,186.566v-2.913
				c0-0.488-0.221-0.693-0.567-0.693c-0.362,0-0.567,0.205-0.567,0.693v2.913c0,0.488,0.205,0.693,0.567,0.693
				C260.07,187.258,260.291,187.054,260.291,186.566z"/>
			<path style="fill:#263238;" d="M264.185,184.647v-4.343c0-1.248,0.648-1.987,1.871-1.987c1.225,0,1.871,0.739,1.871,1.987v0.855
				h-1.201v-0.936c0-0.531-0.254-0.751-0.635-0.751c-0.382,0-0.636,0.219-0.636,0.751v4.517c0,0.531,0.254,0.739,0.636,0.739
				c0.381,0,0.635-0.208,0.635-0.739v-1.236h1.201v1.144c0,1.247-0.646,1.987-1.871,1.987
				C264.833,186.633,264.185,185.894,264.185,184.647z"/>
			<path style="fill:#263238;" d="M268.621,184.6v-4.251c0-1.294,0.682-2.033,1.93-2.033c1.247,0,1.929,0.739,1.929,2.033v4.251
				c0,1.294-0.682,2.033-1.929,2.033C269.303,186.633,268.621,185.894,268.621,184.6z M271.209,184.681v-4.413
				c0-0.578-0.254-0.797-0.658-0.797s-0.659,0.219-0.659,0.797v4.413c0,0.577,0.255,0.797,0.659,0.797
				S271.209,185.258,271.209,184.681z"/>
			<path style="fill:#263238;" d="M273.334,178.432h1.813l0.809,5.787h0.023l0.809-5.787h1.814v8.086h-1.202v-6.122h-0.022
				l-0.924,6.122h-1.064l-0.924-6.122h-0.023v6.122h-1.108V178.432z"/>
			<path style="fill:#263238;" d="M279.548,178.432h1.871c1.271,0,1.895,0.705,1.895,1.998v0.797c0,1.294-0.624,1.999-1.895,1.999
				h-0.6v3.292h-1.271V178.432z M281.419,182.07c0.404,0,0.624-0.185,0.624-0.762v-0.959c0-0.578-0.22-0.763-0.624-0.763h-0.6v2.483
				H281.419z"/>
			<path style="fill:#263238;" d="M284.006,178.432h1.271v6.93h2.091v1.155h-3.361V178.432z"/>
			<path style="fill:#263238;" d="M287.978,178.432h3.465v1.155h-2.194v2.137h1.744v1.155h-1.744v2.483h2.194v1.155h-3.465V178.432z
				"/>
			<path style="fill:#263238;" d="M293.164,179.587h-1.328v-1.155h3.928v1.155h-1.329v6.931h-1.271V179.587z"/>
			<path style="fill:#263238;" d="M296.375,178.432h3.465v1.155h-2.194v2.137h1.744v1.155h-1.744v2.483h2.194v1.155h-3.465V178.432z
				"/>
			<path style="fill:#263238;" d="M300.567,178.432h1.94c1.271,0,1.895,0.705,1.895,1.998v4.089c0,1.294-0.624,1.999-1.895,1.999
				h-1.94V178.432z M302.484,185.363c0.404,0,0.647-0.208,0.647-0.785v-4.204c0-0.578-0.243-0.786-0.647-0.786h-0.647v5.775H302.484
				z"/>
		</g>
		<g>
			<g>
				<g>
					<defs>
						<polygon id="XMLID_76_" points="224.218,201.271 192.135,201.271 192.135,160.676 213.524,160.676 224.218,171.37 						"/>
					</defs>
					<use xlink:href="#XMLID_76_"  style="overflow:visible;fill:#92E3A9;"/>
					<clipPath id="XMLID_00000067926516985967306060000013199788372872449189_">
						<use xlink:href="#XMLID_76_"  style="overflow:visible;"/>
					</clipPath>
					
						<polygon style="opacity:0.7;clip-path:url(#XMLID_00000067926516985967306060000013199788372872449189_);fill:#FFFFFF;" points="
						224.218,201.271 192.135,201.271 192.135,160.676 213.524,160.676 224.218,171.37 					"/>
					
						<use xlink:href="#XMLID_76_"  style="overflow:visible;fill:none;stroke:#263238;stroke-linecap:round;stroke-linejoin:round;"/>
				</g>
				<polygon style="fill:#92E3A9;stroke:#263238;stroke-linecap:round;stroke-linejoin:round;" points="213.524,171.37 
					224.218,171.37 213.524,160.676 				"/>
			</g>
			<g>
				
					<rect x="195.3" y="176.368" style="fill:none;stroke:#FFFFFF;stroke-width:0.75;stroke-linecap:round;stroke-linejoin:round;stroke-miterlimit:10;" width="6.3" height="6.3"/>
				
					<rect x="201.785" y="176.368" style="fill:none;stroke:#FFFFFF;stroke-width:0.75;stroke-linecap:round;stroke-linejoin:round;stroke-miterlimit:10;" width="6.3" height="6.3"/>
				
					<rect x="208.269" y="176.368" style="fill:none;stroke:#FFFFFF;stroke-width:0.75;stroke-linecap:round;stroke-linejoin:round;stroke-miterlimit:10;" width="6.3" height="6.3"/>
				
					<rect x="214.753" y="176.368" style="fill:none;stroke:#FFFFFF;stroke-width:0.75;stroke-linecap:round;stroke-linejoin:round;stroke-miterlimit:10;" width="6.3" height="6.3"/>
				
					<rect x="195.3" y="182.668" style="fill:none;stroke:#FFFFFF;stroke-width:0.75;stroke-linecap:round;stroke-linejoin:round;stroke-miterlimit:10;" width="6.3" height="6.3"/>
				
					<rect x="201.785" y="182.668" style="fill:none;stroke:#FFFFFF;stroke-width:0.75;stroke-linecap:round;stroke-linejoin:round;stroke-miterlimit:10;" width="6.3" height="6.3"/>
				
					<rect x="208.269" y="182.668" style="fill:none;stroke:#FFFFFF;stroke-width:0.75;stroke-linecap:round;stroke-linejoin:round;stroke-miterlimit:10;" width="6.3" height="6.3"/>
				
					<rect x="214.753" y="182.668" style="fill:none;stroke:#FFFFFF;stroke-width:0.75;stroke-linecap:round;stroke-linejoin:round;stroke-miterlimit:10;" width="6.3" height="6.3"/>
				
					<rect x="195.3" y="188.968" style="fill:none;stroke:#FFFFFF;stroke-width:0.75;stroke-linecap:round;stroke-linejoin:round;stroke-miterlimit:10;" width="6.3" height="6.3"/>
				
					<rect x="201.785" y="188.968" style="fill:none;stroke:#FFFFFF;stroke-width:0.75;stroke-linecap:round;stroke-linejoin:round;stroke-miterlimit:10;" width="6.3" height="6.3"/>
				
					<rect x="208.269" y="188.968" style="fill:none;stroke:#FFFFFF;stroke-width:0.75;stroke-linecap:round;stroke-linejoin:round;stroke-miterlimit:10;" width="6.3" height="6.3"/>
				
					<rect x="214.753" y="188.968" style="fill:none;stroke:#FFFFFF;stroke-width:0.75;stroke-linecap:round;stroke-linejoin:round;stroke-miterlimit:10;" width="6.3" height="6.3"/>
			</g>
			
				<polyline style="fill:none;stroke:#92E3A9;stroke-width:2;stroke-linecap:round;stroke-linejoin:round;stroke-miterlimit:10;" points="
				195.417,194.656 201.785,188.82 204.934,188.968 208.367,182.756 211.419,185.818 214.842,182.231 217.903,176.368 			"/>
			
				<polyline style="fill:none;stroke:#92E3A9;stroke-width:2;stroke-linecap:round;stroke-linejoin:round;stroke-miterlimit:10;" points="
				214.293,178.201 217.903,176.368 218.629,180.315 			"/>
		</g>
	</g>
</g>
<g id="Lamp">
	<g>
		<g>
			<polygon style="fill:#263238;stroke:#263238;stroke-linecap:round;stroke-linejoin:round;stroke-miterlimit:10;" points="
				118.439,110.197 144.832,89.803 171.225,110.197 			"/>
			
				<rect x="137.933" y="88.202" style="fill:#263238;stroke:#263238;stroke-linecap:round;stroke-linejoin:round;stroke-miterlimit:10;" width="13.798" height="11.798"/>
			
				<line style="fill:none;stroke:#263238;stroke-width:0.75;stroke-linecap:round;stroke-linejoin:round;stroke-miterlimit:10;" x1="144.832" y1="58.88" x2="144.832" y2="100"/>
		</g>
		<g>
			<polygon style="fill:#263238;stroke:#263238;stroke-linecap:round;stroke-linejoin:round;stroke-miterlimit:10;" points="
				328.775,110.197 355.168,89.803 381.561,110.197 			"/>
			
				<rect x="348.269" y="88.202" style="fill:#263238;stroke:#263238;stroke-linecap:round;stroke-linejoin:round;stroke-miterlimit:10;" width="13.798" height="11.798"/>
			
				<line style="fill:none;stroke:#263238;stroke-width:0.75;stroke-linecap:round;stroke-linejoin:round;stroke-miterlimit:10;" x1="355.168" y1="56.88" x2="355.168" y2="100"/>
		</g>
	</g>
</g>
<g id="Character_2">
	<g>
		<g>
			<polygon style="fill:#FFFFFF;stroke:#263238;stroke-linecap:round;stroke-linejoin:round;" points="365.474,428.591 
				364.906,445.093 373.45,445.501 376.559,428.591 			"/>
			<path style="fill:#FFFFFF;stroke:#263238;stroke-linecap:round;stroke-linejoin:round;" d="M348.756,450.152
				c2.885-0.958,7.868-2.698,9.734-3.873c1.495-0.942,3.595-3.995,5.14-4.854c0.451-0.25,1.663-0.326,2.063,0
				c0.207,0.169,0.358,0.537,0.468,0.979c0.18,0.722,1.163,0.85,1.549,0.213c0.331-0.547,0.684-1.015,0.997-1.192
				c1.32-0.745,4.889-0.959,6.064,0c1.938,1.581,2.64,7.065,3.022,9.537c0.083,0.536,0,3.541,0,3.541h-31.181v-1.371
				C346.612,451.779,347.473,450.578,348.756,450.152z"/>
			<path style="fill:#858585;stroke:#263238;stroke-linecap:round;stroke-linejoin:round;stroke-miterlimit:10;" d="
				M377.793,454.502h-31.181v-1.371c0-0.347,0.058-0.683,0.164-0.999h31.053C377.828,453.18,377.793,454.502,377.793,454.502z"/>
			<g>
				<defs>
					<path id="XMLID_68_" d="M370.864,300.675l-6.552,134.191l12.042,2.019c0,0,7.552-38.833,8.48-51.551
						c0.219-3.006,0-12.056,0-12.056l8.49-41.792c0,0,5.583-5.155,6.238-29.73L370.864,300.675z"/>
				</defs>
				<use xlink:href="#XMLID_68_"  style="overflow:visible;fill:#263238;"/>
				<clipPath id="XMLID_00000005988944178158923210000011096974277459843473_">
					<use xlink:href="#XMLID_68_"  style="overflow:visible;"/>
				</clipPath>
				<path style="opacity:0.7;clip-path:url(#XMLID_00000005988944178158923210000011096974277459843473_);" d="M389.333,309.462
					c0,0-2.343,31.167,0,52.257c2.343,21.089,8.581-28.119,8.581-28.119l-3.2-18.801L389.333,309.462z"/>
				
					<use xlink:href="#XMLID_68_"  style="overflow:visible;fill:none;stroke:#263238;stroke-linecap:round;stroke-linejoin:round;stroke-miterlimit:10;"/>
			</g>
			<path style="fill:none;stroke:#7F7F7F;stroke-width:0.75;stroke-linecap:round;stroke-linejoin:round;" d="M370.287,377.432
				c0,0,2.992-0.524,5.646-3.072"/>
			<polygon style="fill:#92E3A9;stroke:#263238;stroke-linecap:round;stroke-linejoin:round;stroke-miterlimit:10;" points="
				362.725,437.423 377.235,438.605 378.317,433.908 362.725,432.691 			"/>
		</g>
		<g>
			<polygon style="fill:#FFFFFF;stroke:#263238;stroke-linecap:round;stroke-linejoin:round;" points="404.634,426.56 
				407.719,445.845 415.623,445.225 415.358,425.482 			"/>
			<path style="fill:#FFFFFF;stroke:#263238;stroke-linecap:round;stroke-linejoin:round;" d="M391.4,450.152
				c2.885-0.958,7.869-2.698,9.734-3.873c1.496-0.942,3.595-3.995,5.14-4.854c0.451-0.25,1.663-0.326,2.062,0
				c0.155,0.126,0.279,0.365,0.377,0.662c0.266,0.801,1.373,0.916,1.84,0.213c0.27-0.406,0.546-0.733,0.797-0.875
				c1.32-0.745,4.889-0.959,6.064,0c1.938,1.581,2.64,7.065,3.022,9.537c0.083,0.536,0,3.541,0,3.541h-31.181v-1.371
				C389.256,451.779,390.117,450.578,391.4,450.152z"/>
			<path style="fill:#858585;stroke:#263238;stroke-linecap:round;stroke-linejoin:round;stroke-miterlimit:10;" d="
				M420.437,454.502h-31.181v-1.371c0-0.347,0.058-0.683,0.164-0.999h31.053C420.473,453.18,420.437,454.502,420.437,454.502z"/>
			<path style="fill:#263238;stroke:#263238;stroke-linecap:round;stroke-linejoin:round;stroke-miterlimit:10;" d="
				M387.557,304.715c0,0,3.002,17.374,5.767,31.948c1.873,9.873,2.025,39.064,2.025,39.064l9.548,60.22l11.814-1.583
				c0,0,0.143-37.107-1.193-49.034c-0.297-2.654-0.785-10.516-0.785-10.516s0.445-31.483,2.877-42
				c1.736-7.509,5.202-15.386,0.992-30.759L387.557,304.715z"/>
			<path style="fill:none;stroke:#7F7F7F;stroke-width:0.75;stroke-linecap:round;stroke-linejoin:round;" d="M397.914,377.432
				c0,0,1.762,2.671,5.007,3.212"/>
			<polygon style="fill:#92E3A9;stroke:#263238;stroke-linecap:round;stroke-linejoin:round;stroke-miterlimit:10;" points="
				402.921,433.29 403.598,437.709 418.241,436.136 418.138,431.385 			"/>
		</g>
		<g>
			<path style="fill:#858585;stroke:#263238;stroke-linecap:round;stroke-linejoin:round;stroke-miterlimit:10;" d="
				M331.829,224.366l-3.229-5.426c0,0-0.784-8.873-2.583-10.603c-1.799-1.73-5.8-6.815-6.366-5.813
				c-0.9,1.592,2.426,4.445,2.426,4.445l0.619,3.298c0,0-5.393-3.88-6.918-3.874c0,0-4.293-5.097-5.815-5.106s0.623,3.52,0.623,3.52
				s-1.453-1.107-1.73-0.415c-0.277,0.692,1.868,3.045,1.868,3.045s-0.83,0.9,0.415,2.837c0,0-0.623,2.214,1.038,3.529
				c1.661,1.315,10.588,6.366,10.588,6.366l2.976,7.058L331.829,224.366z"/>
			<path style="fill:none;stroke:#263238;stroke-width:0.75;stroke-linecap:round;stroke-linejoin:round;stroke-miterlimit:10;" d="
				M311.9,207.576c0,0,1.176,0.484,0.692,2.214c0,0,0.646,0.768,0.761,2.284c0.115,1.515,7.819,0.761,9.895,4.014"/>
			
				<line style="fill:none;stroke:#263238;stroke-width:0.75;stroke-linecap:round;stroke-linejoin:round;stroke-miterlimit:10;" x1="311.9" y1="205.708" x2="315.037" y2="209.029"/>
			<path style="fill:#92E3A9;stroke:#263238;stroke-linecap:round;stroke-linejoin:round;stroke-miterlimit:10;" d="
				M365.174,223.002l-20.616,16.055l-14.113-19.233l-7.197,3.6c0,0,11.302,31.212,19.856,31.212
				c9.088,0,26.369-14.592,26.369-14.592S370.563,237.252,365.174,223.002z"/>
			<path style="fill:none;stroke:#263238;stroke-width:0.75;stroke-linecap:round;stroke-linejoin:round;stroke-miterlimit:10;" d="
				M345.336,240.587c0,0,0.792,1.635,1.07,3.215"/>
		</g>
		<g>
			<defs>
				<path id="XMLID_78_" d="M365.174,223.002l4.382,58.112v24.132c0,0,25.29,3.04,50.248-0.64l-0.865-24.85l2.535-55.389
					c0,0-11.585-8.376-29.366-8.376C374.328,215.991,365.174,223.002,365.174,223.002z"/>
			</defs>
			<use xlink:href="#XMLID_78_"  style="overflow:visible;fill:#92E3A9;"/>
			<clipPath id="XMLID_00000168086593459884810750000001359863844317079682_">
				<use xlink:href="#XMLID_78_"  style="overflow:visible;"/>
			</clipPath>
			<path style="opacity:0.2;clip-path:url(#XMLID_00000168086593459884810750000001359863844317079682_);" d="M369.556,290.152
				c0,0,0.093,7.848,8.742,8.524c8.649,0.676,19.616-1.217,19.616-1.217s3.294-9.463,6.167-8.922
				c2.873,0.541,16.297,5.15,14.858-8.781c-1.44-13.931,19.649,19.78,19.649,19.78l-5.678,24.117l-48.462-3.564l-23.187-12.806
				l3.913-17.131H369.556z"/>
			
				<use xlink:href="#XMLID_78_"  style="overflow:visible;fill:none;stroke:#263238;stroke-linecap:round;stroke-linejoin:round;stroke-miterlimit:10;"/>
		</g>
		<g>
			
				<path style="fill:#92E3A9;stroke:#263238;stroke-width:0.75;stroke-linecap:round;stroke-linejoin:round;stroke-miterlimit:10;" d="
				M381.41,280.552c6.301-0.69,18.377-2.994,29.675-10.693"/>
			
				<path style="fill:#92E3A9;stroke:#263238;stroke-width:0.75;stroke-linecap:round;stroke-linejoin:round;stroke-miterlimit:10;" d="
				M377.005,280.846c0,0,0.849,0.004,2.344-0.105"/>
		</g>
		<g>
			<g>
				<defs>
					<polygon id="XMLID_69_" points="385.56,225.804 381.181,224.209 377.005,228.251 380.062,215.749 383.751,212.85 
						385.628,214.038 394.032,213.714 400.564,214.25 403.669,213.286 406.987,216.606 399.6,230.742 396.495,225.387 
						389.663,226.244 					"/>
				</defs>
				<use xlink:href="#XMLID_69_"  style="overflow:visible;fill:#92E3A9;"/>
				<clipPath id="XMLID_00000157275577063990646480000009766563511656443552_">
					<use xlink:href="#XMLID_69_"  style="overflow:visible;"/>
				</clipPath>
				
					<polygon style="opacity:0.5;clip-path:url(#XMLID_00000157275577063990646480000009766563511656443552_);fill:#FFFFFF;" points="
					385.56,225.804 381.181,224.209 377.005,228.251 380.062,215.749 383.751,212.85 385.628,214.038 394.032,213.714 
					400.564,214.25 403.669,213.286 406.987,216.606 399.6,230.742 396.495,225.387 389.663,226.244 				"/>
				
					<use xlink:href="#XMLID_69_"  style="overflow:visible;fill:none;stroke:#263238;stroke-linecap:round;stroke-linejoin:round;stroke-miterlimit:10;"/>
			</g>
			<g>
				<defs>
					<path id="XMLID_66_" d="M400.106,216.573l-0.989-15.285l-9.666,1.675l-2.028,7.176l-2.025,6.221
						c-0.317,0.034-0.64,0.065-0.95,0.103l2.629,14.279l13.946-14.039C400.723,216.654,400.411,216.617,400.106,216.573z"/>
				</defs>
				<use xlink:href="#XMLID_66_"  style="overflow:visible;fill:#858585;"/>
				<clipPath id="XMLID_00000089568238745824340350000017024826042906170028_">
					<use xlink:href="#XMLID_66_"  style="overflow:visible;"/>
				</clipPath>
				
					<path style="clip-path:url(#XMLID_00000089568238745824340350000017024826042906170028_);fill:#263238;stroke:#263238;stroke-width:0.5;stroke-linecap:round;stroke-linejoin:round;stroke-miterlimit:10;" d="
					M376.363,202.355c-0.002,3.871,0.594,12.558,5.924,13.568c5.527,1.047,11.85-5.227,14.127-7.74
					c0.568-0.627,1.004-1.352,1.303-2.144l1.213-3.212c0,0,1.16,0.146,2.281-0.471H376.363z"/>
				
					<use xlink:href="#XMLID_66_"  style="overflow:visible;fill:none;stroke:#263238;stroke-linecap:round;stroke-linejoin:round;stroke-miterlimit:10;"/>
			</g>
			
				<path style="fill:#263238;stroke:#263238;stroke-width:0.75;stroke-linecap:round;stroke-linejoin:round;stroke-miterlimit:10;" d="
				M382.804,182.73c0,0-4.578-3.483-2.333-6.219c1.168-1.423,2.693,0.451,2.693,0.451s-0.811-4.362,2.433-4.957
				c3.019-0.553,2.884,2.884,2.884,2.884s1.551-2.944,4.254-2.289c2.168,0.525,1.335,3.582,1.335,3.582s2.883-3.582,5.858-2.014
				c2.567,1.354,0.451,4.596,0.451,4.596s3.064-1.081,4.777,0.631c1.712,1.712,0,4.056,0,4.056s3.362,0.033,3.515,2.523
				c0.154,2.49-2.606,2.974-2.606,2.974s3.891,1.262,3.924,4.326c0.033,3.064-2.58,2.073-2.58,2.073s1.622,2.884,0.27,4.416
				c-1.352,1.532-2.614,0-2.614,0s1.683,3.628-0.452,4.682c-1.53,0.756-2.432-1.081-2.432-1.081s-1.287,3.139-2.851,1.211
				c-1.565-1.928-9.297-16.709-9.297-16.709L382.804,182.73z"/>
			
				<path style="fill:#FFFFFF;stroke:#263238;stroke-width:0.75;stroke-linecap:round;stroke-linejoin:round;stroke-miterlimit:10;" d="
				M381.478,182.871l-2.874,5.979c-0.303,0.631-0.458,1.324-0.452,2.024l0.017,1.884l-1.587,3.984
				c-0.083,0.21-0.148,0.414-0.201,0.634c-0.511,2.137-2.939,13.573,2.963,15.902c5.233,2.064,12.62-2.913,15.327-4.954
				c0.676-0.509,1.24-1.14,1.682-1.861l1.794-2.928c0,0,2.592,0.855,4.196-1.462c1.603-2.317,3.465-3.56,1.259-5.645
				c-2.206-2.085-4.247,1.247-4.247,1.247l0.296-5.868l-2.558-4.501l-0.129-2.829c0,0-8.388-0.924-14.016-4.006L381.478,182.871z"/>
			<path style="fill:#858585;stroke:#263238;stroke-linecap:round;stroke-linejoin:round;stroke-miterlimit:10;" d="
				M381.478,182.871l-2.874,5.979c-0.303,0.631-0.458,1.324-0.452,2.024l0.017,1.884l-1.587,3.984
				c-0.083,0.21-0.148,0.414-0.201,0.634c-0.511,2.137-2.939,13.573,2.963,15.902c5.233,2.064,12.62-2.913,15.327-4.954
				c0.676-0.509,1.24-1.14,1.682-1.861l1.794-2.928c0,0,2.592,0.855,4.196-1.462c1.603-2.317,3.465-3.56,1.259-5.645
				c-2.206-2.085-4.247,1.247-4.247,1.247l0.296-5.868l-2.558-4.501l-0.129-2.829c0,0-8.388-0.924-14.016-4.006L381.478,182.871z"/>
			<path style="fill:none;stroke:#263238;stroke-width:0.75;stroke-linecap:round;stroke-linejoin:round;stroke-miterlimit:10;" d="
				M386.579,203.365c-1.62,3.128-3.823,2.607-5.198,1.828"/>
			<path style="fill:#263238;" d="M386.611,196.248c-0.22,0.711-0.674,1.203-1.014,1.098c-0.34-0.105-0.438-0.767-0.218-1.479
				c0.22-0.711,0.674-1.203,1.014-1.098C386.734,194.875,386.831,195.536,386.611,196.248z"/>
			<path style="fill:#263238;" d="M379.933,194.184c-0.22,0.711-0.674,1.203-1.014,1.098c-0.34-0.105-0.438-0.767-0.218-1.479
				c0.22-0.711,0.674-1.203,1.014-1.098C380.056,192.81,380.153,193.472,379.933,194.184z"/>
			<path style="fill:none;stroke:#263238;stroke-width:0.75;stroke-linecap:round;stroke-linejoin:round;stroke-miterlimit:10;" d="
				M379.453,189.56c0,0,1.996-0.564,2.499,1.531"/>
			<path style="fill:none;stroke:#263238;stroke-width:0.75;stroke-linecap:round;stroke-linejoin:round;stroke-miterlimit:10;" d="
				M385.205,192.29c0,0,2.328-2.454,3.892,0.155"/>
			<path style="fill:none;stroke:#263238;stroke-width:0.75;stroke-linecap:round;stroke-linejoin:round;stroke-miterlimit:10;" d="
				M381.952,194.807c0,0-0.32,2.794-3.654,4.236l1.827,2.884"/>
		</g>
		<g>
			
				<path style="fill:#92E3A9;stroke:#263238;stroke-width:0.75;stroke-linecap:round;stroke-linejoin:round;stroke-miterlimit:10;" d="
				M393.606,309.462l-0.507,3.086c-0.175,1.067,0.548,2.075,1.615,2.25l32.064,5.265c1.067,0.175,2.074-0.548,2.25-1.615
				l0.507-3.086L393.606,309.462z"/>
			<g>
				<defs>
					<path id="XMLID_67_" d="M427.145,319.001l-32.438-5.326c-0.964-0.158-1.617-1.068-1.459-2.032l3.216-19.589
						c0.158-0.964,1.068-1.617,2.032-1.459l32.438,5.326c0.964,0.158,1.617,1.068,1.459,2.032l-3.216,19.59
						C429.019,318.506,428.109,319.159,427.145,319.001z"/>
				</defs>
				<use xlink:href="#XMLID_67_"  style="overflow:visible;fill:#92E3A9;"/>
				<clipPath id="XMLID_00000026862743659927269070000001615478297448483760_">
					<use xlink:href="#XMLID_67_"  style="overflow:visible;"/>
				</clipPath>
				<path style="opacity:0.5;clip-path:url(#XMLID_00000026862743659927269070000001615478297448483760_);fill:#FFFFFF;" d="
					M427.145,319.001l-32.438-5.326c-0.964-0.158-1.617-1.068-1.459-2.032l3.216-19.589c0.158-0.964,1.068-1.617,2.032-1.459
					l32.438,5.326c0.964,0.158,1.617,1.068,1.459,2.032l-3.216,19.59C429.019,318.506,428.109,319.159,427.145,319.001z"/>
				
					<use xlink:href="#XMLID_67_"  style="overflow:visible;fill:none;stroke:#263238;stroke-linecap:round;stroke-linejoin:round;stroke-miterlimit:10;"/>
			</g>
			<path style="fill:#858585;stroke:#263238;stroke-linecap:round;stroke-linejoin:round;stroke-miterlimit:10;" d="
				M418.453,299.535l-1.777,5.971l-5.989,4.295c0,0-1.789,5.373-3.042,7.711c-0.325,0.607,0.1,1.377,0.789,1.384
				c0.826,0.008,1.792-0.381,2.324-1.989c0,0,0.232,3.165,2.185,1.233c0,0,1.19,3.06,3.048,0.648c0,0,4.305,0.638,5.033-2.471
				c0.728-3.11,1.703-8.582,1.703-8.582l2.746-6.434L418.453,299.535z"/>
			
				<line style="fill:none;stroke:#263238;stroke-width:0.75;stroke-linecap:round;stroke-linejoin:round;stroke-miterlimit:10;" x1="410.745" y1="315.698" x2="411.426" y2="311.068"/>
			<path style="fill:none;stroke:#263238;stroke-width:0.75;stroke-linecap:round;stroke-linejoin:round;stroke-miterlimit:10;" d="
				M411.817,315.966c0,0,0.471,1.539,1.534,1.281c1.063-0.257,2.573,0.929,5.869-0.458"/>
			<path style="fill:#92E3A9;stroke:#263238;stroke-linecap:round;stroke-linejoin:round;stroke-miterlimit:10;" d="
				M421.474,224.366c0,0,14.999,41.683,14.715,47.773c-0.284,6.09-10.947,32.576-10.947,32.576l-8.202-2.615l5.499-31.068
				l-4.927-21.59C417.61,249.442,416.455,233.614,421.474,224.366z"/>
			<path style="fill:none;stroke:#263238;stroke-width:0.75;stroke-linecap:round;stroke-linejoin:round;stroke-miterlimit:10;" d="
				M424.354,270.34c0,0,1.586-1.384,3.939-0.83"/>
			<path style="fill:#FFFFFF;" d="M414.596,302.757c-0.323-0.451-0.543-0.91-0.658-1.315c-1.114-0.018-2.103,0.772-2.289,1.904
				c-0.204,1.245,0.639,2.419,1.883,2.623c1.245,0.204,2.419-0.639,2.623-1.883c0.001-0.006,0-0.012,0.001-0.018
				C415.684,303.923,415.091,303.447,414.596,302.757z"/>
		</g>
	</g>
</g>
<g id="Character_1">
	<g>
		<g>
			<g>
				<defs>
					<polygon id="XMLID_6_" points="121.941,214.789 123.758,223.764 103.539,224.614 107.053,199.754 120.672,201.33 					"/>
				</defs>
				<use xlink:href="#XMLID_6_"  style="overflow:visible;fill:#FFFFFF;"/>
				<clipPath id="XMLID_00000155118313552401012820000006349756693325042843_">
					<use xlink:href="#XMLID_6_"  style="overflow:visible;"/>
				</clipPath>
				
					<path style="clip-path:url(#XMLID_00000155118313552401012820000006349756693325042843_);fill:#263238;stroke:#263238;stroke-width:0.75;stroke-linecap:round;stroke-linejoin:round;" d="
					M130.953,201.179l-16.909,5.038c0.216,1.716,0.595,4.064,1.192,5.709c1.048,2.885,7.098,8.041,11.02,7.947
					c3.922-0.094,4.355-12.528,4.355-12.528l2.388-1.36c0.571-0.325,0.728-1.076,0.336-1.603L130.953,201.179z"/>
				<use xlink:href="#XMLID_6_"  style="overflow:visible;fill:none;stroke:#263238;stroke-linecap:round;stroke-linejoin:round;"/>
			</g>
			<path style="fill:#263238;stroke:#263238;stroke-linecap:round;stroke-linejoin:round;" d="M122.87,183.185
				c0,0,4.907,1,4.406-4.328c-0.501-5.328-9.651-2.065-14.415-1.464c-4.764,0.601-20.169,6.347-14.724,15.424
				c0,0-3.205,5.122,8.353,13.717c0,0,5.486-2.588,8.501,1.189l2.35-4.585l5.949-10.54L122.87,183.185z"/>
			<path style="fill:#263238;stroke:#263238;stroke-linecap:round;stroke-linejoin:round;" d="M122.507,182.385
				c0,0,4.703,2.624,7.407-0.66C129.914,181.726,130.205,188.726,122.507,182.385z"/>
			<path style="fill:#FFFFFF;stroke:#263238;stroke-linecap:round;stroke-linejoin:round;" d="M123.007,181.658
				c0,0,6.957,7.371,6.76,12.424l0,4.606l3.705,4.159c0.415,0.466,0.329,1.19-0.184,1.546l-2.146,1.487
				c0,0,0.631,11.802-3.072,12.22c-3.703,0.418-9.86-3.955-11.093-6.597c-1.233-2.643-2.013-7.394-2.013-7.394
				s-3.657-0.857-4.091-4.738c-0.435-3.881,3.476-3.775,4.487-1.228l0.821,2.069l2.544-0.089c0,0-1.453-3.661-0.591-4.74
				c0.861-1.079,4.239-3.709,2.687-6.225C119.268,186.642,119.798,182.378,123.007,181.658z"/>
			<path style="fill:none;stroke:#263238;stroke-width:0.75;stroke-linecap:round;stroke-linejoin:round;" d="M126.946,208.19
				c0,0,0.895,1.733,2.968,1.386"/>
			<path style="fill:none;stroke:#263238;stroke-linecap:round;stroke-linejoin:round;" d="M125.159,194.114
				c0,0,1.594-2.214,3.101-0.194"/>
			<path style="fill:#263238;" d="M127.669,198.721c0.019,0.691-0.268,1.26-0.64,1.27c-0.372,0.01-0.689-0.542-0.708-1.233
				c-0.019-0.691,0.268-1.26,0.64-1.27C127.333,197.478,127.65,198.03,127.669,198.721z"/>
		</g>
		<polygon style="fill:#FFFFFF;stroke:#263238;stroke-linecap:round;stroke-linejoin:round;" points="95.601,420.242 
			92.683,445.371 101.371,446.71 106.156,421.869 		"/>
		<g>
			<defs>
				<path id="XMLID_5_" d="M91.506,309.2c0,0,0.355,14.557,5.532,24.828l1.175,38.641l-5.936,62.264l13.196,1.258l12.003-65.126
					l4.038-59.005L91.506,309.2z"/>
			</defs>
			<use xlink:href="#XMLID_5_"  style="overflow:visible;fill:#92E3A9;"/>
			<clipPath id="XMLID_00000099663018661518006940000008810386858078892709_">
				<use xlink:href="#XMLID_5_"  style="overflow:visible;"/>
			</clipPath>
			<path style="opacity:0.2;clip-path:url(#XMLID_00000099663018661518006940000008810386858078892709_);" d="M90.347,314.19
				l12.04,6.85c0,0,0.192,5.251,2.478,10.755c0.542,1.305-0.494,2.715-1.903,2.606c-1.077-0.083-1.981,0.042-1.981,0.698
				c0,1.622,7.823,6.85,7.823,6.85s7.885,25.501,7.602,34.921c-0.284,9.42,0.007,14.467,0.007,14.467l9.425-11.716l-7.373-46.144
				l-5.047-21.81l-15.321-7.751l-6.592,5.285L90.347,314.19z"/>
			<use xlink:href="#XMLID_5_"  style="overflow:visible;fill:none;stroke:#263238;stroke-linecap:round;stroke-linejoin:round;"/>
		</g>
		<polygon style="fill:#FFFFFF;stroke:#263238;stroke-linecap:round;stroke-linejoin:round;" points="122.124,421.889 
			123.067,447.169 131.858,447.169 132.804,421.889 		"/>
		<path style="fill:#263238;stroke:#263238;stroke-linecap:round;stroke-linejoin:round;" d="M145.861,450.73
			c-2.501-0.831-6.822-2.34-8.44-3.358c-1.297-0.817-3.117-3.464-4.456-4.209c-0.391-0.217-1.442-0.283-1.788,0
			c-0.639,0.521-0.663,3.231-0.663,3.231s-1.129-2.767-1.951-3.231c-1.145-0.646-4.239-0.831-5.258,0
			c-1.68,1.371-2.289,6.126-2.62,8.269c-0.072,0.465,0,3.07,0,3.07h27.035v-1.188C147.72,452.141,146.974,451.1,145.861,450.73z"/>
		<path style="fill:#92E3A9;stroke:#263238;stroke-linecap:round;stroke-linejoin:round;" d="M140.51,310.404l-2.163,58.401
			l-3.605,66.693h-13.699c0,0-2.884-51.191-2.163-65.971l-7.21-34.247c0,0-7.571-10.094-5.768-22.351L140.51,310.404z"/>
		<polygon style="fill:#92E3A9;stroke:#263238;stroke-linecap:round;stroke-linejoin:round;" points="119.781,430.541 
			120.232,438.562 135.283,438.562 136.454,430.541 		"/>
		<polygon style="fill:#92E3A9;stroke:#263238;stroke-linecap:round;stroke-linejoin:round;" points="91.14,429.846 90.827,437.874 
			105.81,439.303 107.737,431.429 		"/>
		<polygon style="fill:#92E3A9;stroke:#263238;stroke-linecap:round;stroke-linejoin:round;" points="163.293,271.955 
			142.498,258.731 164.411,236.818 185.206,250.042 		"/>
		<polygon style="fill:#FFFFFF;stroke:#263238;stroke-width:0.75;stroke-linecap:round;stroke-linejoin:round;" points="
			164.484,267.432 147.763,256.798 165.383,239.178 182.104,249.812 		"/>
		<polygon style="fill:none;stroke:#263238;stroke-width:0.75;stroke-linecap:round;stroke-linejoin:round;" points="
			165.702,249.181 168.618,246.265 164.866,243.878 161.949,246.795 		"/>
		<polygon style="fill:none;stroke:#263238;stroke-width:0.75;stroke-linecap:round;stroke-linejoin:round;" points="
			161.168,253.715 164.085,250.798 160.333,248.411 157.416,251.328 		"/>
		<polygon style="fill:none;stroke:#263238;stroke-width:0.75;stroke-linecap:round;stroke-linejoin:round;" points="
			156.477,258.406 159.394,255.489 155.641,253.103 152.725,256.019 		"/>
		<path style="fill:#858585;stroke:#263238;stroke-linecap:round;stroke-linejoin:round;stroke-miterlimit:10;" d="M172.855,240.229
			l-2.768,2.768c-0.558,0.558-0.456,1.49,0.21,1.913l4.044,2.572c0.908,0.578,2.096,0.447,2.857-0.314l2.553-2.553L172.855,240.229z
			"/>
		<path style="fill:#858585;stroke:#263238;stroke-linecap:round;stroke-linejoin:round;stroke-miterlimit:10;" d="M98.872,223.163
			l3.605-7.931c0,0,20.909-2.343,26.497,15.141L98.872,223.163z"/>
		<path style="fill:#858585;stroke:#263238;stroke-linecap:round;stroke-linejoin:round;stroke-miterlimit:10;" d="M86.976,229.923
			c0,0-5.151,39.531-3.785,53.534c1.081,11.085,8.382,20.458,8.382,20.458l10.815-4.236l-5.498-16.223c0,0,1.712-29.2,3.335-35.96
			L86.976,229.923z"/>
		<polygon style="fill:#858585;stroke:#263238;stroke-linecap:round;stroke-linejoin:round;stroke-miterlimit:10;" points="
			88.463,301.978 91.506,305.628 104.009,300.761 102.387,295.894 		"/>
		<g>
			<defs>
				<path id="XMLID_4_" d="M86.976,229.923c0,0-1.622,22.711,2.974,38.664c4.596,15.952,0,42.178,0,42.178
					s21.36,13.789,54.075,3.245c0,0-4.056-77.598-9.463-81.924S98.602,211.267,86.976,229.923z"/>
			</defs>
			<use xlink:href="#XMLID_4_"  style="overflow:visible;fill:#858585;"/>
			<clipPath id="XMLID_00000112621413391152422470000017417801614403193735_">
				<use xlink:href="#XMLID_4_"  style="overflow:visible;"/>
			</clipPath>
			<path style="opacity:0.2;clip-path:url(#XMLID_00000112621413391152422470000017417801614403193735_);" d="M152.009,319.237
				l-1.694-13.609l-6.29-31.634c0,0-15.896-45.86-16.493-14.807c-0.597,31.053,18.512,29.227,3.371,34.634
				c-9.174,3.277-16.512,0.819-20.87-1.627c-1.173-0.658-2.375,0.803-1.544,1.861c3.798,4.833,9.572,7.841,14.023,9.575
				c1.844,0.719,1.553,3.442-0.405,3.731c-19.791,2.922-33.644-12.819-33.644-12.819l-7.309,22.712l3.091,1.983H152.009z"/>
			
				<use xlink:href="#XMLID_4_"  style="overflow:visible;fill:none;stroke:#263238;stroke-linecap:round;stroke-linejoin:round;stroke-miterlimit:10;"/>
		</g>
		<path style="fill:#858585;stroke:#263238;stroke-linecap:round;stroke-linejoin:round;stroke-miterlimit:10;" d="M134.562,232.086
			c0,0,6.219,2.433,7.3,9.869c1.081,7.435,7.976,30.282,7.976,30.282l2.298-1.487c0,0,6.624,2.704,5.543,10.274
			c0,0-5.615,11.004-11.761,8.922c-6.308-2.136-9.842-7.292-12.977-15.736c-1.67-4.498-6.49-18.06-6.49-18.06"/>
		<g>
			<path style="fill:none;stroke:#263238;stroke-width:0.75;stroke-linecap:round;stroke-linejoin:round;" d="M152.623,278.862
				c0.033,0.538,0.011,1.123-0.082,1.757"/>
			<path style="fill:none;stroke:#263238;stroke-width:0.75;stroke-linecap:round;stroke-linejoin:round;" d="M148.486,283.457
				c0,0,1.893-2.974,1.622-9.463c0,0,1.3,0.848,2.036,2.69"/>
		</g>
		<path style="fill:#FFFFFF;stroke:#263238;stroke-linecap:round;stroke-linejoin:round;" d="M153.668,270.119l7.21-5.137
			c0,0,0.991-5.317,6.399-6.759c0,0,3.335-5.498,5.227-4.867s-2.253,2.884-2.614,5.768l1.532,2.052c0,0,4.957-0.88,6.219-2.502
			c0,0-0.27,3.425-2.253,3.966c0,0,0,2.614-1.352,2.523l-9.914,2.794l-5.768,10.77L153.668,270.119z"/>
		<g>
			<path style="fill:none;stroke:#263238;stroke-width:0.75;stroke-linecap:round;stroke-linejoin:round;" d="M124.146,295.122
				c1.108-0.103,2.237-0.293,3.386-0.58"/>
			<path style="fill:none;stroke:#263238;stroke-width:0.75;stroke-linecap:round;stroke-linejoin:round;" d="M95.808,278.726
				c0,0,10.631,16.269,25.992,16.489"/>
		</g>
		<path style="fill:#858585;stroke:#263238;stroke-linecap:round;stroke-linejoin:round;stroke-miterlimit:10;" d="M150.562,270.299
			c0,0,7.523,5.678,6.801,12.527l2.704-5.182c0,0-0.09-4.371-6.309-8.967L150.562,270.299z"/>
		<path style="fill:#FFFFFF;stroke:#263238;stroke-width:0.75;stroke-linecap:round;stroke-linejoin:round;" d="M120.685,454.502
			h27.035v-1.188c0-0.301-0.051-0.592-0.142-0.867h-26.924C120.654,453.356,120.685,454.502,120.685,454.502z"/>
		<path style="fill:#263238;stroke:#263238;stroke-linecap:round;stroke-linejoin:round;" d="M114.981,450.73
			c-2.501-0.831-6.822-2.34-8.44-3.358c-1.297-0.817-3.117-3.464-4.456-4.209c-0.391-0.217-1.442-0.283-1.788,0
			c-0.639,0.521-0.663,3.231-0.663,3.231s-1.129-2.767-1.951-3.231c-1.145-0.646-4.239-0.831-5.258,0
			c-1.68,1.371-2.289,6.126-2.62,8.269c-0.072,0.465,0,3.07,0,3.07h27.035v-1.188C116.84,452.141,116.094,451.1,114.981,450.73z"/>
		<path style="fill:#FFFFFF;stroke:#263238;stroke-width:0.75;stroke-linecap:round;stroke-linejoin:round;" d="M89.805,454.502
			h27.035v-1.188c0-0.301-0.05-0.592-0.142-0.867H89.774C89.774,453.356,89.805,454.502,89.805,454.502z"/>
		<path style="fill:none;stroke:#263238;stroke-width:0.75;stroke-linecap:round;stroke-linejoin:round;" d="M129.641,369.887
			c0,0-2.868,4.95-7.517,3.064"/>
		<path style="fill:none;stroke:#263238;stroke-width:0.75;stroke-linecap:round;stroke-linejoin:round;" d="M109.633,371.633
			c0,0-5.151,4.394-9.41,1.318"/>
		<polygon style="fill:#92E3A9;" points="163.371,243.531 164.085,247.114 170.468,247.114 165.284,245.897 165.534,243.464 		"/>
	</g>
</g>
</svg>
