<?xml version="1.0" encoding="utf-8"?>
<!-- Generator: Adobe Illustrator 27.5.0, SVG Export Plug-In . SVG Version: 6.00 Build 0)  -->
<svg version="1.1" xmlns="http://www.w3.org/2000/svg" xmlns:xlink="http://www.w3.org/1999/xlink" x="0px" y="0px"
	 viewBox="0 0 500 500" style="enable-background:new 0 0 500 500;" xml:space="preserve">
<g id="BACKGROUND">
	<rect y="0.397" style="fill:#F9B2AE;" width="500" height="500"/>
</g>
<g id="OBJECTS">
	<g>
		<g>
			<g>
				<g>
					<path style="fill:#061C3D;" d="M159.018,256.969c-0.744,0.528-1.619,0.714-2.489,0.951c-0.985,0.269-1.975,0.508-2.97,0.743
						c-1.936,0.457-3.877,0.887-5.818,1.323c-1.94,0.435-3.88,0.871-5.82,1.306l-2.839,0.637c-0.77,0.173-2.024,0.764-2.696,0.181
						c-0.167-0.145-0.266-0.384-0.171-0.6c0.36-0.818,1.431-0.79,2.21-0.964c0.994-0.221,1.988-0.442,2.982-0.664
						c1.941-0.432,3.881-0.864,5.822-1.296c1.94-0.432,3.879-0.872,5.824-1.282c0.948-0.2,1.894-0.408,2.849-0.575
						c0.978-0.171,1.98-0.438,2.971-0.261C159.098,256.51,159.232,256.817,159.018,256.969z"/>
					<path style="fill:#061C3D;" d="M153.133,246.885c-0.791-0.057-1.646,0.51-2.37,0.807c-0.807,0.331-1.602,0.696-2.392,1.064
						c-1.627,0.759-3.243,1.54-4.858,2.324c-1.659,0.805-3.318,1.61-4.977,2.415c-0.786,0.381-1.572,0.762-2.358,1.144
						c-0.687,0.334-1.469,0.871-2.216,1.08c-0.033,0-0.064-0.019-0.097-0.011c-0.018,0.004-0.035,0.009-0.053,0.013
						c-0.298,0.073-0.488,0.264-0.544,0.571c-0.005,0.028-0.01,0.057-0.015,0.085c-0.04,0.22,0.086,0.514,0.276,0.633
						c0.762,0.477,1.496-0.123,2.208-0.471c0.872-0.426,1.744-0.854,2.615-1.282c1.699-0.834,3.398-1.669,5.098-2.503
						c1.743-0.856,3.488-1.708,5.218-2.591c0.866-0.442,1.732-0.886,2.577-1.368c0.675-0.384,1.685-0.717,2.124-1.371
						C153.508,247.222,153.404,246.905,153.133,246.885z"/>
					<path style="fill:#061C3D;" d="M137.27,238.201c0.042,1.303-0.811,2.749-1.307,3.923c-0.623,1.473-1.266,2.938-1.888,4.412
						c-1.226,2.904-2.386,5.838-3.471,8.798c-0.324,0.884-1.688,0.349-1.361-0.534c1.093-2.959,2.263-5.887,3.53-8.775
						c0.625-1.423,1.27-2.835,1.967-4.225c0.326-0.651,0.655-1.307,1.02-1.937c0.351-0.606,0.724-1.33,1.303-1.743
						C137.133,238.069,137.267,238.097,137.27,238.201z"/>
				</g>
				<g>
					<g>
						<path style="fill:#061C3D;" d="M174.928,357.116c-0.434-2.73-1.415-5.371-3.148-7.548c-1.69-2.123-4.289-3.791-5.14-6.48
							c-0.938-2.963,0.262-6.191,0.263-9.212c0.001-2.549-0.474-5.156-1.668-7.428c-1.215-2.311-3.152-3.907-5.523-4.935
							c-2.326-1.009-4.906-1.537-7.025-2.979c-4.983-3.391-2.547-10.485-2.493-15.42c0.06-5.461-1.502-11.216-5.419-15.186
							c-0.362-0.367-0.742-0.707-1.13-1.033c-6.161-10.62-18.031-17.814-31.668-17.814c-13.268,0-24.861,6.812-31.153,16.961
							c-0.802,0.564-1.578,1.171-2.284,1.886c-3.917,3.97-5.479,9.725-5.419,15.186c0.054,4.935,2.49,12.029-2.493,15.42
							c-2.119,1.442-4.7,1.97-7.025,2.979c-2.371,1.029-4.308,2.624-5.523,4.935c-1.194,2.271-1.668,4.878-1.667,7.428
							c0.001,3.021,1.2,6.249,0.263,9.212c-0.851,2.69-3.45,4.357-5.14,6.48c-1.732,2.177-2.714,4.818-3.148,7.548
							c-0.453,2.85-0.412,5.741-0.23,8.613c0.214,3.383,0.523,6.762,0.792,10.141c0.131,1.644,0.19,3.312,0.418,4.945
							c0.176,1.256,0.68,2.46,1.902,3.01c1.335,0.6,3.029,0.381,4.451,0.387c1.852,0.007,3.703,0.008,5.555,0.001
							c7.212-0.026,14.423-0.158,21.631-0.395c7.159-0.235,14.314-0.565,21.463-1.003c2.431-0.149,4.86-0.329,7.289-0.503
							c2.429,0.174,4.858,0.354,7.289,0.503c7.149,0.438,14.305,0.768,21.464,1.003c7.208,0.237,14.419,0.369,21.63,0.395
							c1.852,0.007,3.703,0.006,5.555-0.001c1.422-0.005,3.116,0.213,4.451-0.387c1.222-0.549,1.726-1.753,1.902-3.01
							c0.229-1.633,0.288-3.301,0.418-4.945c0.269-3.379,0.578-6.758,0.792-10.141C175.34,362.857,175.381,359.966,174.928,357.116z
							"/>
						<path style="fill:#E09E7E;" d="M93.168,304.544c0.486-5.969,2.737-11.795,7.007-16.086c4.182-4.203,10.046-6.546,15.981-6.065
							c2.805,0.227,5.847,0.753,8.403,2.053c-0.107-0.149-0.21-0.301-0.316-0.449c-0.185-0.259,0.217-0.552,0.433-0.334
							c0.63,0.635,1.223,1.311,1.797,2.005c1.832,1.469,3.122,3.502,4.067,5.654c0.236,0.537,0.443,1.081,0.644,1.628
							c1.022,2.011,1.902,4.087,2.655,6.151c2.255,6.182,3.352,12.765,3.634,19.327c0.15,3.492,0.063,6.992-0.223,10.475
							c-0.256,3.118-0.61,6.331-2.407,8.99c-2.795,4.137-7.975,5.982-12.895,6.632c1.293,11.535,7.247,22.854,7.247,22.854
							l-35.279,0.698v-1.489V353.72v-26.515c-0.051-0.505-0.098-1.009-0.14-1.509c-0.297-3.538-0.443-7.092-0.592-10.639
							C93.037,311.562,92.883,308.034,93.168,304.544z"/>
						<g>
							<path style="fill:#061C3D;" d="M117.632,306.945c-0.052-0.04-0.115-0.048-0.167,0c-0.117,0.109-0.117,0.171-0.149,0.321
								c-0.061,0.278-0.161,0.454-0.356,0.656c-0.352,0.364-0.769,0.577-1.275,0.635c-1.06,0.121-2.104-0.229-3.14-0.388
								c-1.798-0.275-3.812,0.111-4.586,1.944c-0.072,0.17,0.156,0.303,0.293,0.225c0.801-0.451,1.745-0.924,2.662-1.057
								c1.101-0.159,2.189,0.248,3.275,0.359c0.991,0.102,2.025-0.038,2.804-0.708c0.335-0.289,0.544-0.629,0.679-1.046
								C117.763,307.604,117.906,307.158,117.632,306.945z"/>
							<path style="fill:#061C3D;" d="M130.982,305.405c-0.838-0.19-1.696-0.194-2.54-0.042c-0.425,0.077-0.836,0.205-1.234,0.371
								c-0.187,0.078-0.369,0.159-0.543,0.263c-0.246,0.146-0.352,0.263-0.525,0.48c-0.265,0.333-0.032,0.886,0.44,0.756
								c0.179-0.049,0.324-0.065,0.496-0.149c0.174-0.086,0.349-0.171,0.526-0.249c0.326-0.145,0.674-0.25,1.022-0.325
								c0.691-0.148,1.424-0.149,2.113,0.008c1.344,0.307,2.447,1.091,3.557,1.87c0.031,0.022,0.068-0.014,0.06-0.046
								C133.997,306.791,132.463,305.741,130.982,305.405z"/>
							<path style="fill:#D38667;" d="M124.928,324.056c-1.99-0.852-2.251-3.539-2.561-5.405c-0.427-2.564-0.568-5.159-0.936-7.73
								c-0.004-0.026-0.049-0.026-0.053,0c-0.424,2.822-0.116,5.687,0.351,8.485c0.297,1.786,0.683,4.011,2.284,5.085
								c-0.385,0.352-0.795,0.671-1.272,0.903c-0.66,0.322-1.341,0.377-2.022,0.602c-0.25,0.083-0.308,0.517,0,0.568
								c1.521,0.249,3.28-0.794,4.295-1.845C125.182,324.544,125.187,324.167,124.928,324.056z"/>
							<path style="fill:#061C3D;" d="M115.201,313.952c0,1.225-0.887,2.217-1.98,2.217c-1.094,0-1.98-0.993-1.98-2.217
								s0.887-2.218,1.98-2.218C114.314,311.734,115.201,312.727,115.201,313.952z"/>
							<path style="fill:#061C3D;" d="M130.882,313.952c0,1.225-0.887,2.217-1.98,2.217c-1.094,0-1.98-0.993-1.98-2.217
								s0.887-2.218,1.98-2.218C129.996,311.734,130.882,312.727,130.882,313.952z"/>
							<path style="fill:#061C3D;" d="M119.334,330.727c-0.198-0.802-1.303-1.162-2.023-1.342c-0.834-0.208-1.699-0.21-2.53,0.014
								c-1.62,0.437-2.892,1.641-3.535,3.168c-0.15,0.356,0.132,0.798,0.455,0.928c0.328,0.132,0.823,0.042,0.982-0.322
								c0.475-1.086,1.346-1.968,2.503-2.302c0.557-0.16,1.171-0.197,1.744-0.108c0.315,0.049,0.635,0.136,0.93,0.257
								c0.358,0.146,0.62,0.333,1.024,0.296C119.189,331.288,119.412,331.041,119.334,330.727z"/>
						</g>
						<path style="fill:#D38667;" d="M123.24,351.486c-14.506,2.505-22.765-14.857-22.765-14.857s10.581,9.332,22.48,7.73
							c-0.336,0.056-0.672,0.12-1.006,0.164C122.336,347.982,121.948,350.612,123.24,351.486z"/>
						<g>
							<circle style="fill:#E09E7E;" cx="90.076" cy="317.339" r="6.876"/>
							<g>
								<path style="fill:#D38667;" d="M87.284,321.062c-0.117,0-0.235-0.034-0.338-0.107c-0.266-0.187-0.33-0.555-0.143-0.821
									l4.784-6.794c0.187-0.266,0.555-0.329,0.82-0.143c0.266,0.187,0.33,0.555,0.143,0.821l-4.784,6.794
									C87.651,320.975,87.469,321.062,87.284,321.062z"/>
							</g>
						</g>
						<path style="fill:#061C3D;" d="M136.529,293.742c-1.143-3.731-2.967-7.356-5.825-10.07c-2.943-2.795-6.955-4.517-10.867-5.447
							c-7.618-1.81-16.17-0.502-22.069,4.913c-6.702,6.153-8.683,15.647-7.342,24.368c0.182,1.184,0.428,2.357,0.72,3.519
							c0.119,0.474,0.695,0.837,1.174,0.667c2.669-0.948,4.151-3.42,5.016-5.986c0.895-2.657,1.374-5.53,1.325-8.354
							c0.785,1.757,2.248,3.163,3.954,4.152c0.259-2.243,0.617-6.272,0.617-6.272l1.119,7.1c0.159,0.061,0.316,0.129,0.477,0.183
							c2.185,0.737,4.537,0.901,6.827,0.963c2.523,0.068,5.051,0.06,7.575,0.033c5.05-0.054,10.13-0.184,15.164-0.605
							c0.878-0.073,1.819-0.216,2.496-0.834c0.702-0.64,0.919-1.588,0.877-2.506C137.678,297.622,137.096,295.594,136.529,293.742z"
							/>
					</g>
					<g>
						<path style="fill:#EA5B2F;" d="M173.708,465.61c0.419-15.529,2.088-82.915-0.321-90.568
							c-2.725-8.657-48.279-20.788-48.279-20.788c-1.619,2.877-1.429,13.942-15.119,13.942c-12.875,0-13.501-11.065-15.119-13.942
							c0,0-45.554,12.131-48.279,20.788c-2.409,7.653-10.392,75.04-12.211,90.568H173.708z"/>
						<path style="fill:#FEFFF6;" d="M116.81,397.934c0.795-1.65,1.592-3.299,2.383-4.95c0.305-0.636-0.339-1.431-1.018-1.018
							c-2.805,1.7-5.909,2.785-9.167,3.168c-0.668-3.062-1.526-6.06-2.567-9.034c-0.181-0.516-0.981-0.594-1.127,0
							c-0.433,1.76-0.85,3.525-1.257,5.291c-0.215,0.93-0.422,1.862-0.643,2.79c-0.215,0.901-0.529,1.396-1.421,1.708
							c-3.431,1.202-6.936,2.224-10.398,3.333c-0.487,0.156-0.637,0.87-0.148,1.135c2.675,1.447,5.518,2.25,8.45,2.945
							c-0.979,3.717-2.017,7.418-3.14,11.095c-0.223,0.731,0.687,1.137,1.199,0.698c1.48-1.267,2.968-2.525,4.452-3.787
							c0.705-0.6,1.408-1.202,2.111-1.803c0.332-0.284,0.7-0.697,1.089-0.901c0.421-0.22,0.85,0.004,1.273,0.138
							c3.674,1.164,7.346,2.333,11.023,3.488c0.553,0.174,1.059-0.385,0.918-0.918c-0.401-1.515-0.933-2.988-1.594-4.409
							c-0.344-0.738-0.724-1.46-1.138-2.161c-0.375-0.634-1.006-1.31-1.208-2.022c-0.215-0.758,0.423-1.656,0.738-2.312
							C116.016,399.584,116.413,398.759,116.81,397.934z"/>
						<path style="fill:none;stroke:#CC3715;stroke-linecap:round;stroke-linejoin:round;stroke-miterlimit:10;" d="
							M156.223,390.964c2.514,24.097-0.486,49.097,0.032,73.311"/>
						<path style="fill:none;stroke:#CC3715;stroke-linecap:round;stroke-linejoin:round;stroke-miterlimit:10;" d="M61.09,390.964
							c0.401,23.967,0.401,46.967,0.048,71.008"/>
						<path style="fill:none;stroke:#CC3715;stroke-width:3;stroke-linecap:round;stroke-linejoin:round;stroke-miterlimit:10;" d="
							M125.107,354.254c0,0-2.544,13.942-15.119,13.942s-15.119-13.942-15.119-13.942"/>
					</g>
					<g>
						<polygon style="fill:#CC3715;" points="112.48,383.1 121.753,368.196 127.398,378.056 						"/>
						<g>
							<path style="fill:#E09E7E;" d="M157.86,403.372l-44.423-75.923c0,0-2.257-0.102-1.625,2.291
								c0.632,2.393,8.307,15.124,8.307,15.124l-7.404-3.228c0,0-5.754,0.365-8.646,4.468c-0.4,0.568-0.032,1.372,0.66,1.431
								c0.514,0.044,1.189-0.058,2.027-0.51c0,0-1.535,5.209,0.542,4.323c0,0-0.542,5.788,2.167,4.121l2.167-2.787l26.906,59.719
								C138.538,412.401,157.138,426.667,157.86,403.372z"/>
							<path style="fill:none;stroke:#D38667;stroke-width:0.5;stroke-miterlimit:10;" d="M157.86,403.372l-44.423-75.923
								c0,0-2.257-0.102-1.625,2.291c0.632,2.393,8.307,15.124,8.307,15.124l-7.404-3.228c0,0-5.754,0.365-8.646,4.468
								c-0.4,0.568-0.032,1.372,0.66,1.431c0.514,0.044,1.189-0.058,2.027-0.51c0,0-1.535,5.209,0.542,4.323
								c0,0-0.542,5.788,2.167,4.121l2.167-2.787l4.464,9.908"/>
							<path style="fill:#D38667;" d="M119.168,348.098c-1.786-1.372-3.703-3.158-6.034-3.44c-1.119-0.135-2.269,0.06-3.336,0.4
								c-0.548,0.175-1.082,0.389-1.61,0.617c-0.449,0.193-0.967,0.356-1.23,0.792c-0.021,0.035-0.003,0.096,0.042,0.103
								c0.427,0.068,0.777-0.121,1.162-0.289c0.517-0.227,1.039-0.442,1.574-0.621c1.062-0.356,2.165-0.57,3.289-0.497
								c1.162,0.076,2.163,0.575,3.151,1.152c1.002,0.585,2.01,1.17,2.965,1.829C119.17,348.165,119.195,348.118,119.168,348.098z"
								/>
							<path style="fill:#D38667;" d="M119.971,352.226c-1.786-1.372-3.703-3.158-6.034-3.44c-1.119-0.135-2.269,0.06-3.336,0.4
								c-0.548,0.175-1.082,0.389-1.61,0.617c-0.449,0.193-0.967,0.356-1.23,0.792c-0.021,0.035-0.003,0.096,0.042,0.103
								c0.427,0.068,0.777-0.121,1.162-0.289c0.517-0.227,1.039-0.442,1.574-0.621c1.062-0.356,2.165-0.57,3.289-0.497
								c1.162,0.076,2.163,0.575,3.151,1.152c1.002,0.585,2.01,1.17,2.965,1.829C119.973,352.293,119.998,352.246,119.971,352.226z"
								/>
							<path style="fill:#D38667;" d="M114.229,350.239c-0.159,0.001-0.337,0.133-0.475,0.206c-0.179,0.095-0.352,0.2-0.523,0.308
								c-0.334,0.211-0.649,0.448-0.952,0.703c-0.304,0.255-0.593,0.528-0.866,0.816c-0.145,0.154-0.276,0.316-0.404,0.484
								c-0.128,0.168-0.264,0.324-0.305,0.536c-0.04,0.204,0.173,0.413,0.373,0.286c0.182-0.115,0.282-0.28,0.408-0.449
								c0.116-0.155,0.236-0.306,0.352-0.461c0.229-0.305,0.48-0.596,0.743-0.872c0.26-0.273,0.535-0.532,0.816-0.783
								c0.143-0.128,0.291-0.25,0.44-0.37c0.13-0.105,0.339-0.211,0.418-0.357C114.267,350.265,114.253,350.238,114.229,350.239z"/>
						</g>
						<path style="fill:#FF713A;" d="M147.059,465.61h31.906c1.223-2.514,1.79-5.336,1.806-8.126
							c0.022-3.833-0.905-7.569-2.135-11.176c-1.229-3.607-2.682-7.146-4.107-10.679c-2.905-7.205-6.004-14.332-9.337-21.349
							c-6.589-13.875-14.096-27.337-22.757-40.03c-1.069-1.566-2.156-3.12-3.259-4.662c-0.264-0.369-24.812,12.593-26.698,13.512
							c0,0,25.518,67.217,27.148,70.767C141.559,458.072,143.959,462.164,147.059,465.61z"/>
					</g>
				</g>
			</g>
			<g>
				<g>
					<g>
						<path style="fill:#061C3D;" d="M240.02,285.357c-1.222-3.654-4.07-6.811-7.907-7.722c-4.093-0.971-8.279,0.378-11.559,2.871
							c-1.326,1.007-2.489,2.175-3.541,3.44c-1.992,1.512-3.683,3.44-5.097,5.524c-2.428,3.578-3.856,8.117-2.326,12.342
							c1.504,4.155,5.374,6.461,9.617,6.964c3.797,0.45,7.743-0.355,11.107-2.157c3.76-2.015,6.639-5.262,8.49-9.082
							C240.614,293.802,241.36,289.363,240.02,285.357z"/>
						<g>
							<path style="fill:#E09E7E;" d="M253.335,303.101c-0.486-5.969-2.737-11.795-7.007-16.086
								c-4.182-4.203-10.046-6.546-15.981-6.065c-2.805,0.227-5.847,0.753-8.403,2.053c0.107-0.149,0.21-0.301,0.316-0.449
								c0.185-0.259-0.217-0.552-0.433-0.335c-0.63,0.635-1.223,1.311-1.797,2.005c-1.832,1.469-3.122,3.502-4.067,5.654
								c-0.236,0.537-0.443,1.081-0.644,1.628c-1.022,2.011-1.902,4.087-2.655,6.151c-2.255,6.182-3.352,12.765-3.634,19.327
								c-0.15,3.493-0.063,6.992,0.223,10.475c0.256,3.118,0.61,6.331,2.407,8.99c2.795,4.137,7.975,5.982,12.895,6.632
								c-1.293,11.535-7.247,22.854-7.247,22.854l35.279,0.698v-1.489v-12.867v-26.515c0.051-0.505,0.098-1.009,0.14-1.509
								c0.297-3.538,0.443-7.092,0.592-10.639C253.466,310.119,253.62,306.591,253.335,303.101z"/>
							<path style="fill:#D38667;" d="M223.343,349.73c14.506,2.504,22.686-14.544,22.686-14.544s-9.576,9.496-21.474,7.894
								C224.89,343.135,223.881,348.737,223.343,349.73z"/>
						</g>
						<path style="fill:#061C3D;" d="M298.607,258.076c-2.067-3.572-5.027-6.526-8.785-8.287c-3.517-1.648-7.52-2.242-11.33-1.377
							c-3.524,0.8-6.806,2.835-9.087,5.639c-1.158,1.423-2.066,3.024-2.639,4.77c-0.7,2.136-0.891,4.439-0.907,6.676
							c-0.02,2.714,0.315,5.493,0.993,8.169c-0.612-0.326-1.227-0.647-1.859-0.931c-7.246-3.253-16.097-3.782-23.123,0.285
							c-1.416-2.367-3.581-4.52-6.415-4.872c-2.213-0.274-4.546,0.654-5.746,2.503c-1.326-1.319-3.244-1.972-5.129-1.779
							c-2.48,0.254-4.552,1.856-5.855,3.926c-1.539,2.445-1.882,5.438-1.659,8.266c0.226,2.873,0.893,5.734,1.952,8.413
							c0.578,1.462,1.253,2.886,2.042,4.246c0.439,0.757,0.915,1.455,1.435,2.12c0.386,0.61,0.797,1.2,1.237,1.76
							c3.789,4.813,9.723,8.195,15.797,9.004c2.895,0.386,5.885,0.086,8.497-1.193c0.054,0.739,0.394,1.478,0.921,2.022
							c1.195,1.232,2.884,1.114,4.455,0.854c-1.76,4.658-2.351,9.635-2.645,14.584c-0.08,1.349-0.141,2.699-0.198,4.05
							c-0.054,1.299-0.092,2.609,0.167,3.891c0.403,1.993,1.814,4.005,3.945,4.335c1.521,0.235,3.117-0.749,3.649-2.13
							c1.908,1.244,4.827,0.569,6.841-0.223c3.088-1.214,5.892-3.044,8.308-5.315c4.962-4.666,8.257-11.049,9.595-17.697
							c1.571-7.806,0.717-16.157-3.128-23.198c-0.227-0.416-0.487-0.813-0.733-1.219c1.64,0.232,3.308,0.264,4.947,0.07
							c4.063-0.482,7.895-2.179,11.104-4.699c1.675-1.315,3.219-2.859,4.391-4.644c1.167-1.776,1.835-3.803,2.042-5.913
							C302.101,265.969,300.698,261.688,298.607,258.076z"/>
						<g>
							<circle style="fill:#E09E7E;" cx="256.427" cy="315.896" r="6.876"/>
							<g>
								<path style="fill:#D38667;" d="M259.219,319.62c-0.185,0-0.367-0.087-0.482-0.25l-4.783-6.794
									c-0.187-0.266-0.124-0.634,0.143-0.821c0.265-0.187,0.633-0.122,0.82,0.143l4.783,6.795
									c0.187,0.266,0.124,0.633-0.143,0.821C259.454,319.585,259.337,319.62,259.219,319.62z"/>
							</g>
						</g>
						<g>
							<path style="fill:#D38667;" d="M216.981,319.46c2.071-0.629,2.626-3.271,3.139-5.091c0.706-2.501,1.131-5.066,1.779-7.581
								c0.007-0.026,0.052-0.021,0.053,0.006c0.112,2.851-0.509,5.665-1.28,8.396c-0.492,1.742-1.119,3.912-2.829,4.804
								c0.344,0.392,0.716,0.754,1.165,1.037c0.621,0.392,1.292,0.522,1.944,0.82c0.24,0.11,0.25,0.548-0.062,0.564
								c-1.539,0.081-3.173-1.149-4.067-2.306C216.674,319.918,216.711,319.542,216.981,319.46z"/>
							<path style="fill:#061C3D;" d="M227.759,310.485c-0.134,1.217,0.638,2.302,1.725,2.422c1.087,0.12,2.077-0.769,2.212-1.987
								c0.135-1.217-0.638-2.302-1.725-2.422C228.883,308.378,227.893,309.268,227.759,310.485z"/>
							<path style="fill:#061C3D;" d="M212.171,308.764c-0.134,1.217,0.638,2.301,1.725,2.422c1.087,0.12,2.077-0.769,2.212-1.987
								c0.134-1.217-0.638-2.301-1.725-2.421C213.296,306.657,212.306,307.546,212.171,308.764z"/>
							<path style="fill:#061C3D;" d="M216.306,302.541c-0.602-0.427-1.388-0.684-2.124-0.693c-1.522-0.02-2.975,0.693-3.819,1.979
								c-0.233,0.355-0.205,0.833,0.15,1.102c0.322,0.244,0.866,0.206,1.102-0.15c0.079-0.119,0.162-0.235,0.253-0.345
								c0.036-0.044,0.074-0.087,0.112-0.129c0.025-0.028,0.028-0.032,0.039-0.045c0,0.001,0.004,0,0.028-0.023
								c0.105-0.097,0.214-0.188,0.33-0.273c0.058-0.042,0.117-0.082,0.176-0.122c0.014-0.009,0.113-0.068,0.046-0.03
								c0.124-0.07,0.254-0.131,0.386-0.184c0.132-0.053,0.219-0.085,0.302-0.105c0.129-0.031,0.26-0.055,0.392-0.072
								c0.073-0.009,0.147-0.015,0.22-0.022c0.025-0.001,0.05-0.003,0.075-0.004c0.007,0,0.011,0,0.029,0
								c0.279,0.004,0.562,0.035,0.835,0.092c0.09,0.019,0.134,0.034,0.267,0.082c0.127,0.046,0.25,0.1,0.37,0.161
								c0.01,0.005,0.084,0.043,0.098,0.049c0.039,0.023,0.077,0.047,0.114,0.072c0.11,0.075,0.208,0.16,0.308,0.248
								c0.211,0.185,0.387,0.404,0.699,0.445c0.155,0.02,0.333-0.051,0.423-0.181C217.577,303.735,216.821,302.906,216.306,302.541z
								"/>
							<path style="fill:#061C3D;" d="M234.224,307.042c-0.266-0.688-0.778-1.337-1.387-1.752c-1.258-0.858-2.862-1.067-4.277-0.463
								c-0.39,0.167-0.631,0.581-0.485,1.001c0.133,0.381,0.608,0.651,1.001,0.485c0.132-0.056,0.265-0.106,0.402-0.147
								c0.055-0.016,0.11-0.031,0.165-0.045c0.036-0.009,0.041-0.011,0.058-0.015c-0.001,0.001,0.004,0.002,0.036-0.003
								c0.141-0.023,0.283-0.038,0.425-0.045c0.072-0.003,0.143-0.004,0.214-0.004c0.017,0,0.132,0.006,0.055,0.001
								c0.142,0.01,0.284,0.031,0.424,0.06c0.139,0.028,0.23,0.051,0.31,0.08c0.125,0.045,0.247,0.098,0.366,0.157
								c0.066,0.033,0.131,0.068,0.196,0.104c0.022,0.013,0.043,0.025,0.065,0.038c0.006,0.004,0.009,0.007,0.024,0.016
								c0.23,0.157,0.449,0.34,0.644,0.538c0.065,0.066,0.092,0.103,0.177,0.216c0.081,0.108,0.153,0.221,0.22,0.339
								c0.006,0.01,0.046,0.082,0.054,0.095c0.02,0.041,0.038,0.082,0.055,0.124c0.051,0.123,0.085,0.249,0.12,0.377
								c0.074,0.27,0.1,0.551,0.337,0.757c0.118,0.103,0.305,0.141,0.452,0.083C234.624,308.74,234.452,307.631,234.224,307.042z"/>
							<path style="fill:#FFFFFF;" d="M224.158,328.15c0.03-0.656-0.276-1.323-0.714-1.794c-1.053-1.134-2.879-1.251-4.23-0.659
								c-0.694,0.304-1.352,0.857-1.653,1.564c-0.024,0.057-0.038,0.118-0.058,0.177c-0.123,0.219-0.217,0.455-0.239,0.728
								c-0.033,0.417,0.113,0.872,0.421,1.164c0.371,0.353,0.853,0.404,1.341,0.427c0.949,0.045,1.899,0.085,2.849,0.101
								c0.915,0.015,1.858-0.258,2.199-1.201c0.054-0.151,0.065-0.307,0.076-0.462C224.156,328.18,224.156,328.166,224.158,328.15z"
								/>
						</g>
					</g>
					<g>
						<polygon style="fill:#E09E7E;" points="194.686,465.61 204.402,391.037 182.114,394.175 166.313,465.61 						"/>
						<path style="fill:#E09E7E;" d="M277.39,465.61c0.029-11.458,0.142-60.417-0.006-60.408l0.074-8.993l-27.907,2.995
							l5.484,66.405H277.39z"/>
					</g>
					<g>
						<path style="fill:#296BE6;" d="M178.363,465.61h77.013v-58.993l28.849-1.855c0,0,9.362-52.118-31.638-52.486
							c0,0-14.176,10.672-33.563-2.37c0,0-17.124-5.492-26.191,5.352c-9.067,10.845-14.531,42.086-14.531,42.086h13.813
							C192.115,397.345,179.347,450.264,178.363,465.61z"/>
						<path style="fill:#FF713A;" d="M234.865,384.701c-3.165-0.549-6.057,1.012-7.985,3.398c-0.23-0.776-0.507-1.534-0.905-2.273
							c-0.648-1.205-1.572-2.299-2.721-3.051c-2.081-1.362-4.963-1.454-6.734,0.47c-1.627,1.766-1.922,4.404-1.775,6.7
							c0.203,3.176,1.012,6.269,1.869,9.321c0.997,3.552,2.066,7.113,2.303,10.816c0.027,0.429,0.459,0.703,0.851,0.488
							c5.738-3.148,12.195-5.648,16.618-10.679c2.095-2.384,3.801-5.379,3.81-8.634
							C240.204,388.015,238.113,385.265,234.865,384.701z"/>
						
							<line style="fill:none;stroke:#061C3D;stroke-linecap:round;stroke-linejoin:round;stroke-miterlimit:10;" x1="255.376" y1="406.617" x2="253.495" y2="375.456"/>
						
							<line style="fill:none;stroke:#061C3D;stroke-linecap:round;stroke-linejoin:round;stroke-miterlimit:10;" x1="204.402" y1="362.32" x2="192.115" y2="397.345"/>
					</g>
				</g>
				<g>
					<path style="fill:#061C3D;" d="M169.659,301.301c0.821-0.398,1.715-0.438,2.611-0.529c1.016-0.104,2.032-0.177,3.051-0.245
						c1.984-0.133,3.97-0.238,5.956-0.348c1.985-0.11,3.971-0.221,5.956-0.331l2.905-0.162c0.788-0.044,2.122-0.421,2.689,0.265
						c0.141,0.17,0.199,0.423,0.07,0.62c-0.49,0.747-1.542,0.544-2.338,0.587c-1.017,0.055-2.034,0.11-3.051,0.164
						c-1.985,0.107-3.971,0.214-5.956,0.321c-1.985,0.107-3.97,0.222-5.956,0.307c-0.968,0.041-1.936,0.091-2.905,0.098
						c-0.993,0.007-2.025,0.106-2.973-0.231C169.505,301.741,169.423,301.416,169.659,301.301z"/>
					<path style="fill:#061C3D;" d="M173.806,312.215c0.771,0.186,1.708-0.233,2.471-0.407c0.851-0.194,1.694-0.423,2.535-0.656
						c1.73-0.481,3.452-0.986,5.174-1.494c1.769-0.521,3.538-1.043,5.307-1.564c0.838-0.247,1.676-0.494,2.514-0.741
						c0.733-0.216,1.592-0.618,2.363-0.701c0.033,0.006,0.06,0.029,0.094,0.026c0.018-0.001,0.036-0.003,0.054-0.004
						c0.306-0.023,0.525-0.181,0.63-0.474c0.01-0.027,0.02-0.054,0.029-0.082c0.075-0.211,0-0.521-0.168-0.67
						c-0.673-0.596-1.496-0.124-2.256,0.101c-0.931,0.277-1.86,0.556-2.79,0.834c-1.813,0.544-3.627,1.087-5.44,1.631
						c-1.86,0.558-3.722,1.111-5.573,1.697c-0.927,0.294-1.854,0.589-2.767,0.925c-0.729,0.268-1.78,0.43-2.321,1.003
						C173.491,311.822,173.541,312.152,173.806,312.215z"/>
					<path style="fill:#061C3D;" d="M188.024,323.391c0.173-1.292,1.252-2.579,1.934-3.655c0.857-1.351,1.732-2.69,2.588-4.042
						c1.687-2.663,3.314-5.366,4.87-8.108c0.465-0.819,1.722-0.067,1.255,0.751c-1.565,2.739-3.2,5.435-4.925,8.075
						c-0.85,1.301-1.719,2.588-2.635,3.844c-0.429,0.588-0.861,1.181-1.324,1.743c-0.446,0.54-0.933,1.193-1.572,1.505
						C188.138,323.543,188.011,323.493,188.024,323.391z"/>
				</g>
			</g>
			<g>
				<g>
					<path style="fill:#061C3D;" d="M318.341,322.151l1.938,12.909h6.954v-4.573l1.961,4.573h59.654l0.84-12.909l2.979,12.909
						h11.714c-0.002-0.44-0.004-0.879-0.006-1.318c-0.015-3.214-0.03-6.428-0.045-9.642c-0.013-2.869,0.109-5.781-0.183-8.64
						c-0.252-2.467-0.894-4.931-2.537-6.853c-0.884-1.034-2.026-1.794-2.991-2.743c-0.918-0.903-1.545-1.981-1.917-3.211
						c-0.733-2.423-0.628-5.005-0.954-7.495c-0.312-2.389-1.099-4.607-2.59-6.521c-1.13-1.45-2.549-2.595-4.161-3.418
						c-3.435-13.524-15.689-23.53-30.281-23.53c-14.068,0-25.962,9.3-29.876,22.086c-0.903,0.212-1.802,0.439-2.678,0.75
						c-2.282,0.81-4.275,2.197-5.767,4.112c-1.491,1.914-2.278,4.132-2.59,6.521c-0.325,2.49-0.221,5.072-0.954,7.495
						c-0.372,1.23-0.999,2.308-1.917,3.211c-0.966,0.949-2.107,1.709-2.991,2.743c-1.644,1.923-2.285,4.386-2.537,6.853
						c-0.292,2.859-0.17,5.771-0.183,8.64c-0.015,3.214-0.03,6.428-0.045,9.642c-0.002,0.439-0.004,0.879-0.006,1.318h5.957
						L318.341,322.151z"/>
					<g>
						<path style="fill:#E09E7E;" d="M372.725,292.505c-0.486-5.969-2.737-11.795-7.007-16.086
							c-4.182-4.202-10.046-6.546-15.981-6.065c-2.805,0.227-5.847,0.753-8.403,2.053c0.107-0.149,0.21-0.3,0.316-0.449
							c0.185-0.259-0.217-0.552-0.433-0.334c-0.63,0.635-1.223,1.311-1.797,2.005c-1.832,1.469-3.122,3.502-4.067,5.654
							c-0.236,0.537-0.443,1.081-0.644,1.628c-1.022,2.011-1.902,4.087-2.655,6.151c-2.255,6.182-3.352,12.765-3.634,19.326
							c-0.15,3.493-0.063,6.992,0.223,10.475c0.256,3.118,0.61,6.331,2.407,8.99c2.795,4.137,7.975,5.982,12.895,6.632
							c-1.293,11.535-7.247,22.854-7.247,22.854l35.279,0.698v-1.489v-12.867v-26.516c0.051-0.505,0.098-1.009,0.14-1.509
							c0.297-3.538,0.443-7.092,0.592-10.639C372.856,299.524,373.01,295.995,372.725,292.505z"/>
						<path style="fill:#D38667;" d="M342.988,339.562c14.29,2.169,22.431-14.972,22.431-14.972s-10.581,9.332-22.48,7.73
							c0.336,0.055,0.672,0.12,1.006,0.164c-0.354,0.822-1.271,8.332-1.078,6.8C342.883,339.154,342.858,339.542,342.988,339.562z"
							/>
						<g>
							<path style="fill:#D38667;" d="M338.543,311.064c2.071-0.629,2.625-3.271,3.139-5.091c0.706-2.501,1.131-5.066,1.779-7.581
								c0.007-0.026,0.052-0.021,0.053,0.006c0.112,2.851-0.509,5.665-1.28,8.396c-0.492,1.742-1.119,3.912-2.829,4.804
								c0.344,0.392,0.716,0.754,1.165,1.038c0.621,0.392,1.292,0.522,1.944,0.82c0.24,0.11,0.25,0.548-0.062,0.564
								c-1.539,0.081-3.173-1.149-4.067-2.306C338.237,311.521,338.273,311.145,338.543,311.064z"/>
							<path style="fill:#061C3D;" d="M349.321,302.088c-0.134,1.217,0.638,2.302,1.725,2.422c1.087,0.12,2.078-0.769,2.212-1.987
								c0.134-1.217-0.638-2.302-1.725-2.422C350.445,299.981,349.455,300.871,349.321,302.088z"/>
							<path style="fill:#061C3D;" d="M333.733,300.367c-0.134,1.217,0.638,2.301,1.725,2.422c1.087,0.12,2.077-0.769,2.212-1.987
								c0.134-1.217-0.638-2.301-1.725-2.421C334.858,298.26,333.868,299.15,333.733,300.367z"/>
							<path style="fill:#061C3D;" d="M349.072,317.89c-0.198-0.802-1.303-1.162-2.023-1.342c-0.834-0.208-1.699-0.21-2.53,0.014
								c-1.62,0.437-2.892,1.641-3.535,3.168c-0.15,0.356,0.132,0.798,0.456,0.928c0.328,0.132,0.823,0.042,0.982-0.322
								c0.475-1.087,1.346-1.968,2.503-2.302c0.557-0.16,1.171-0.197,1.744-0.108c0.315,0.049,0.635,0.136,0.93,0.257
								c0.358,0.146,0.62,0.333,1.024,0.296C348.926,318.451,349.15,318.204,349.072,317.89z"/>
							<path style="fill:#061C3D;" d="M337.868,289.482c-0.602-0.427-1.388-0.684-2.124-0.693c-1.522-0.02-2.975,0.693-3.819,1.979
								c-0.233,0.355-0.205,0.833,0.15,1.102c0.322,0.244,0.867,0.206,1.102-0.15c0.079-0.119,0.162-0.235,0.253-0.345
								c0.036-0.044,0.074-0.087,0.112-0.129c0.025-0.028,0.028-0.032,0.039-0.045c0,0.001,0.004,0,0.028-0.023
								c0.105-0.097,0.215-0.188,0.33-0.273c0.058-0.042,0.117-0.082,0.176-0.122c0.014-0.009,0.113-0.068,0.046-0.03
								c0.124-0.07,0.254-0.131,0.386-0.184c0.132-0.054,0.219-0.085,0.302-0.105c0.129-0.031,0.26-0.055,0.392-0.072
								c0.073-0.009,0.147-0.015,0.22-0.022c0.025-0.001,0.05-0.003,0.075-0.004c0.007,0,0.011,0,0.029,0
								c0.279,0.004,0.562,0.035,0.835,0.092c0.09,0.019,0.134,0.034,0.267,0.082c0.127,0.046,0.25,0.1,0.371,0.161
								c0.01,0.005,0.083,0.043,0.097,0.049c0.039,0.023,0.077,0.047,0.114,0.072c0.11,0.075,0.208,0.16,0.308,0.248
								c0.211,0.185,0.387,0.404,0.699,0.445c0.155,0.02,0.333-0.051,0.423-0.181C339.139,290.677,338.383,289.848,337.868,289.482z
								"/>
							<path style="fill:#061C3D;" d="M355.704,299.248c-0.266-0.688-0.778-1.337-1.387-1.752c-1.258-0.858-2.863-1.067-4.277-0.463
								c-0.39,0.167-0.631,0.581-0.485,1.001c0.133,0.381,0.608,0.651,1.001,0.485c0.132-0.056,0.265-0.106,0.402-0.147
								c0.055-0.016,0.11-0.031,0.165-0.045c0.036-0.009,0.041-0.011,0.057-0.016c-0.001,0.001,0.004,0.002,0.036-0.003
								c0.141-0.023,0.283-0.038,0.425-0.045c0.072-0.003,0.143-0.004,0.214-0.004c0.017,0,0.132,0.006,0.055,0.001
								c0.142,0.01,0.284,0.031,0.423,0.06c0.139,0.028,0.23,0.051,0.31,0.08c0.125,0.045,0.247,0.098,0.366,0.157
								c0.066,0.033,0.131,0.068,0.195,0.104c0.022,0.013,0.043,0.025,0.065,0.038c0.006,0.004,0.009,0.006,0.024,0.016
								c0.23,0.157,0.449,0.34,0.644,0.538c0.065,0.066,0.092,0.103,0.177,0.216c0.081,0.109,0.153,0.221,0.22,0.339
								c0.006,0.01,0.046,0.082,0.054,0.095c0.02,0.041,0.038,0.082,0.055,0.124c0.051,0.123,0.085,0.249,0.12,0.377
								c0.074,0.27,0.1,0.551,0.337,0.757c0.118,0.103,0.305,0.141,0.453,0.083C356.103,300.947,355.931,299.838,355.704,299.248z"
								/>
						</g>
					</g>
					<g>
						<circle style="fill:#E09E7E;" cx="372.885" cy="305.301" r="6.876"/>
						<g>
							<path style="fill:#D38667;" d="M375.677,309.024c-0.185,0-0.367-0.087-0.482-0.25l-4.783-6.794
								c-0.187-0.266-0.124-0.634,0.142-0.821c0.264-0.187,0.633-0.122,0.82,0.143l4.783,6.795c0.187,0.266,0.124,0.633-0.143,0.821
								C375.912,308.99,375.795,309.024,375.677,309.024z"/>
						</g>
					</g>
					<path style="fill:#061C3D;" d="M378.263,284.222c-1.073-3.771-3.082-7.266-5.749-10.135
						c-5.582-6.004-13.985-8.731-22.064-8.143c-4.051,0.295-8.447,1.269-11.765,3.729c-3.272,2.425-4.978,6.202-6.156,9.991
						c-0.3,0.966-0.544,1.95-0.795,2.93c-0.064,0.249-0.016,0.462,0.094,0.628c-0.403,0.29-0.811,0.574-1.226,0.845
						c-0.064,0.042-0.007,0.143,0.06,0.103c0.439-0.26,0.85-0.558,1.276-0.835c0.392,0.386,1.172,0.381,1.356-0.311
						c0.062-0.233,0.125-0.47,0.187-0.705c2.432-1.76,4.606-3.831,6.519-6.17c0.904,3.988,3.622,7.439,6.148,10.55
						c2.833,3.489,6.08,6.714,9.653,9.445c3.538,2.704,7.642,4.792,12.154,5.065c2.149,0.13,4.377-0.173,6.342-1.081
						c1.856-0.858,3.184-2.36,3.939-4.245C379.677,292.287,379.302,287.872,378.263,284.222z"/>
					<g>
						<g>
							<path style="fill:#E09E7E;" d="M283.872,388.684c-0.29-0.514-0.91-0.365-1.158,0.018c-0.96-2.682-2.793-5.005-5.084-6.709
								c-3.091-2.301-6.895-3.162-10.667-3.513c-4.296-0.4-8.644-0.378-12.954-0.494c-1.116-0.03-2.232-0.06-3.349-0.09
								c-0.887-0.024-1.878-0.185-2.739,0.088c-0.501,0.159-0.984,0.489-1.076,1.041c-0.12,0.725,0.447,1.19,1.024,1.482
								c3.69,1.864,7.977,2.712,12.12,2.755c-0.544,0.322-1.216,0.491-1.784,0.677c-1.164,0.38-2.342,0.72-3.523,1.042
								c-2.394,0.654-4.828,1.263-7.282,1.644c-2.456,0.381-4.777,0.257-7.095-0.675c-1.935-0.778-3.804-1.785-5.956-1.633
								c-0.439,0.031-0.734,0.575-0.378,0.913c1.469,1.393,2.937,2.785,4.406,4.178c1.264,1.198,2.479,2.627,3.961,3.56
								c1.463,0.92,3.257,1.02,4.936,1.122c1.91,0.116,3.824,0.105,5.735,0.031c7.681-0.3,15.319-1.52,22.966-0.144
								c0.972,0.175,1.909,0.253,2.852-0.097c0.897-0.333,1.74-0.865,2.535-1.39C282.514,391.726,284.82,390.368,283.872,388.684z"
								/>
							<path style="fill:#D38667;" d="M260.995,385.058c-6.994,3.634-15.055,6.267-22.849,3.584
								c-0.375-0.129-0.538,0.467-0.164,0.594c7.859,2.666,16.182-0.114,23.059-4.099
								C261.093,385.108,261.048,385.031,260.995,385.058z"/>
							<path style="fill:#D38667;" d="M261.203,389.7c-3.272,0.996-6.626,1.815-10.001,2.382c-3.322,0.558-6.761,0.699-9.971-0.469
								c-0.422-0.154-0.609,0.526-0.186,0.674c3.153,1.103,6.528,0.996,9.777,0.417c3.546-0.632,7.007-1.737,10.407-2.906
								C261.291,389.777,261.266,389.681,261.203,389.7z"/>
						</g>
						<g>
							<path style="fill:#E09E7E;" d="M434.326,393.665c0.795,0.525,1.637,1.057,2.534,1.39c0.943,0.35,1.88,0.272,2.852,0.097
								c7.647-1.376,15.284-0.156,22.965,0.144c1.911,0.074,3.825,0.085,5.735-0.031c1.679-0.102,3.473-0.202,4.936-1.123
								c1.483-0.932,2.698-2.362,3.961-3.56c1.469-1.393,2.937-2.785,4.406-4.178c0.356-0.338,0.061-0.882-0.378-0.913
								c-2.152-0.152-4.021,0.855-5.956,1.633c-2.317,0.932-4.639,1.056-7.095,0.675c-2.454-0.381-4.888-0.991-7.282-1.644
								c-1.181-0.322-2.359-0.662-3.522-1.042c-0.568-0.185-1.24-0.355-1.784-0.677c4.143-0.042,8.43-0.891,12.12-2.755
								c0.577-0.292,1.145-0.757,1.024-1.482c-0.092-0.552-0.575-0.882-1.076-1.041c-0.861-0.273-1.852-0.111-2.739-0.088
								c-1.116,0.03-2.232,0.06-3.348,0.09c-4.311,0.116-8.658,0.094-12.954,0.494c-3.773,0.351-7.576,1.213-10.667,3.513
								c-2.29,1.704-4.123,4.027-5.084,6.709c-0.247-0.382-0.868-0.532-1.157-0.018
								C430.869,391.545,433.175,392.903,434.326,393.665z"/>
							<path style="fill:#D38667;" d="M454.694,386.236c6.995,3.634,15.055,6.267,22.849,3.584c0.375-0.129,0.538,0.467,0.164,0.594
								c-7.859,2.666-16.182-0.114-23.059-4.099C454.596,386.285,454.642,386.208,454.694,386.236z"/>
							<path style="fill:#D38667;" d="M454.486,390.877c3.272,0.996,6.626,1.815,10.001,2.382c3.321,0.558,6.761,0.699,9.971-0.469
								c0.422-0.154,0.609,0.526,0.186,0.674c-3.153,1.103-6.528,0.996-9.777,0.417c-3.546-0.632-7.007-1.737-10.407-2.906
								C454.398,390.954,454.423,390.858,454.486,390.877z"/>
						</g>
					</g>
					<g>
						<path style="fill:#F77A76;" d="M307.614,446.149l-1.268,19.462h102.696l-1.268-19.462
							c18.604-6.304,39.053-49.939,39.053-49.939l-11.993-12.485l-20.295,22.893c0,0-2.46-30.427-4.305-46.571
							c-1.845-16.144-33.145-15.375-33.145-15.375l-4.542-9.611l-14.854,0.068l-14.853-0.068l-4.541,9.611
							c0,0-31.3-0.769-33.145,15.375c-1.845,16.144-4.305,46.571-4.305,46.571l-20.295-22.893L268.56,396.21
							C268.56,396.21,289.01,439.845,307.614,446.149z"/>
						<g>
							<path style="fill:#FEFFF6;" d="M377.089,344.671l-4.542-9.611l-1.714,0.008c0.652,1.44,1.322,2.871,2.021,4.291
								c0.486,0.987,0.978,1.971,1.404,2.986c0.4,0.954,0.787,1.91,1.398,2.753c0.397,0.546-0.515,1.073-0.905,0.529
								c-0.62-0.863-1.008-1.847-1.412-2.823c-0.427-1.033-0.921-2.037-1.368-3.061c-0.668-1.526-1.308-3.08-1.816-4.672
								l-2.682,0.012c0.632,1.911,1.172,3.847,1.69,5.797c0.344,1.297,0.666,2.599,1.028,3.891c0.349,1.243,0.922,2.554,1.072,3.831
								c0.063,0.537-0.735,0.685-0.977,0.265c-0.634-1.098-0.878-2.567-1.199-3.792c-0.339-1.297-0.664-2.602-0.954-3.911
								c-0.447-2.021-0.846-4.05-1.257-6.078l-2.098,0.009c0.553,2.385,0.754,4.839,0.959,7.277
								c0.118,1.407,0.288,2.809,0.386,4.217c0.087,1.235,0.146,2.488,0.481,3.687c0.215,0.766-0.98,1.092-1.188,0.328
								c-0.334-1.226-0.403-2.513-0.482-3.776c-0.085-1.346-0.193-2.689-0.258-4.036c-0.125-2.566-0.204-5.135-0.424-7.694
								l-2.914,0.013c0.574,2.669,0.601,5.448,0.596,8.166c-0.003,1.561-0.024,3.128,0.063,4.688
								c0.039,0.692,0.111,1.381,0.17,2.072c0.047,0.551,0.214,1.183-0.19,1.624c-0.175,0.192-0.513,0.184-0.689,0
								c-0.395-0.41-0.288-1.089-0.332-1.624c-0.06-0.728-0.139-1.455-0.171-2.185c-0.065-1.477,0.007-2.966,0.044-4.443
								c0.071-2.763,0.168-5.537-0.064-8.294l-3.074,0.014l-0.358-0.002c0.318,2.4,0.365,4.819,0.375,7.245
								c0.013,3.097,0.088,6.199-0.031,9.295c-0.03,0.77-1.166,0.769-1.196,0c-0.117-3.044-0.114-6.113-0.02-9.158
								c0.076-2.456,0.178-4.926,0.101-7.385l-2.572-0.012c0.021,2.868-0.253,5.723-0.502,8.588
								c-0.132,1.523-0.194,3.046-0.289,4.57c-0.036,0.578-0.084,1.158-0.066,1.738c0.006,0.202,0.031,0.39,0.068,0.587
								c0.027,0.144,0.063,0.249,0.049,0.398c-0.005,0.054-0.116,0.406-0.06,0.22c-0.072,0.237-0.313,0.461-0.577,0.439
								c-1.248-0.105-0.972-1.956-0.916-2.829c0.096-1.475,0.201-2.949,0.352-4.419c0.32-3.098,0.774-6.19,1.03-9.296l-2.325-0.011
								c0.015,2.45-0.177,4.894-0.424,7.332c-0.137,1.356-0.277,2.713-0.428,4.068c-0.072,0.647-0.143,1.293-0.213,1.94
								c-0.072,0.669-0.057,1.41-0.28,2.047c-0.142,0.404-0.878,0.526-0.949,0c-0.171-1.265,0.193-2.717,0.337-3.987
								c0.154-1.357,0.326-2.712,0.484-4.068c0.285-2.446,0.563-4.893,0.874-7.335l-2.546-0.012c-0.015,0.916-0.157,1.85-0.268,2.74
								c-0.141,1.132-0.332,2.261-0.52,3.386c-0.406,2.434-0.888,4.852-1.159,7.306c-0.081,0.735-1.243,0.739-1.159,0
								c0.275-2.416,0.722-4.805,1.201-7.188c0.234-1.164,0.477-2.327,0.706-3.492c0.178-0.904,0.302-1.843,0.496-2.755
								l-2.583-0.012c-0.38,1.893-0.712,3.797-1.057,5.697c-0.198,1.09-0.395,2.179-0.612,3.265
								c-0.103,0.514-0.214,1.026-0.303,1.542c-0.091,0.526-0.095,0.976-0.556,1.295c-0.177,0.122-0.485,0.043-0.579-0.152
								c-0.244-0.507-0.022-0.908,0.139-1.418c0.158-0.499,0.28-1.006,0.402-1.515c0.259-1.074,0.498-2.153,0.737-3.231
								c0.411-1.849,0.856-3.682,1.426-5.486l-1.085-0.005l-4.541,9.611c0,0-15.57-0.374-25.394,5.069
								c1.368,1.497,2.72,3.01,4.179,4.419c3.349,3.234,7.667,5.539,12.31,6.136c4.446,0.571,8.921-0.308,13.236-1.327
								c4.916-1.16,9.846-2.784,14.926-3.005c5.043-0.22,9.777,1.402,13.777,4.438c3.551,2.696,7.101,6.227,11.611,7.178
								c4.767,1.004,9.361-2.573,13.214-4.856c2.192-1.299,4.425-2.467,6.922-3.05c2.297-0.536,4.658-0.676,7.004-0.483
								C407.234,343.942,377.089,344.671,377.089,344.671z"/>
							<path style="fill:#FEFFF6;" d="M305.075,394.307c5.138,0.359,9.081,4.043,12.9,7.141c3.88,3.147,7.953,6.483,12.926,7.652
								c2.605,0.612,5.274,0.666,7.872-0.01c2.464-0.641,4.727-1.844,6.841-3.24c2.22-1.466,4.226-3.164,6.261-4.867
								c1.664-1.393,3.375-2.775,5.283-3.824c4.39-2.413,9.266-2.245,14.055-1.299c5.665,1.118,11.023,3.359,16.608,4.781
								c4.98,1.267,10.116,1.748,15.189,0.762c3.782-0.735,7.479-2.185,10.739-4.266c-0.378-4.443-0.863-10.016-1.387-15.755
								c-1.902,1.165-3.954,2.061-6.199,2.489c-6.373,1.216-12.493-1.443-18.702-2.451c-3.486-0.566-7.032-0.581-10.461,0.333
								c-3.093,0.825-5.778,2.511-8.544,4.064c-2.581,1.449-5.353,2.898-8.362,3.097c-2.806,0.186-5.341-1-7.495-2.705
								c-4.486-3.548-7.891-8.858-13.735-10.362c-4.498-1.158-8.597,1.28-12.368,3.423c-2.224,1.264-4.465,2.495-6.846,3.441
								c-2.121,0.842-4.378,1.564-6.687,1.332c-3.786-0.381-6.727-2.962-8.855-5.953c-0.237-0.334-0.46-0.677-0.682-1.022
								c-0.569,6.068-1.111,12.217-1.551,17.325C302.952,394.293,304.023,394.234,305.075,394.307z"/>
							<path style="fill:#FEFFF6;" d="M429.039,393.961c0.091,2.942,0.77,5.706,2.019,8.367c0.919,1.957,2.164,3.693,3.525,5.364
								c1.242,1.526,2.518,3.036,3.626,4.666c5.245-8.959,8.618-16.147,8.618-16.147l-11.993-12.485l-5.661,6.386
								C429.066,391.389,428.999,392.67,429.039,393.961z"/>
							<path style="fill:#FEFFF6;" d="M431.55,406.027c-2.871-4.341-3.957-9.369-3.614-14.522l-6.664,7.516
								c-0.15,1.787-0.424,3.572-0.795,5.354c-0.907,4.35-2.195,8.61-3.131,12.954c-0.868,4.025-0.828,8.181-0.722,12.276
								c0.097,3.769,0.243,7.551-0.246,11.298c7.811-6.638,15.342-17.645,20.963-27.075
								C435.634,411.087,433.333,408.723,431.55,406.027z"/>
							<path style="fill:#FEFFF6;" d="M276.276,407.293c1.56-4.224,3.846-7.932,7.027-11.134c1.509-1.52,2.84-3.139,3.843-4.999
								l-6.592-7.436L268.56,396.21c0,0,2.679,5.707,6.967,13.281C275.764,408.753,276.008,408.017,276.276,407.293z"/>
							<path style="fill:#FEFFF6;" d="M299.117,441c0.347-1.454,0.578-2.933,0.571-4.395c-0.022-4.805-2.841-9.141-4.644-13.442
								c-0.855-2.039-1.501-4.153-1.701-6.363c-0.183-2.033,0.056-4.074,0.446-6.069c0.507-2.595,1.349-5.106,1.811-7.71
								c0.117-0.661,0.215-1.325,0.296-1.992l-4.825-5.442c-0.187-0.087-0.375-0.173-0.557-0.27c-1.138-0.611-2.02-1.387-2.81-2.361
								c-1.211,1.945-2.77,3.565-4.309,5.296c-1.528,1.719-2.861,3.587-3.915,5.634c-0.998,1.939-1.726,3.996-2.399,6.066
								c-0.156,0.481-0.307,0.966-0.457,1.452C282.381,421.353,290.588,433.798,299.117,441z"/>
							<path style="fill:#FEFFF6;" d="M297.598,425.79c0.964,2.148,2.011,4.289,2.635,6.568c0.601,2.198,0.716,4.454,0.288,6.695
								c-0.166,0.868-0.381,1.732-0.618,2.592c2.566,2.064,5.156,3.638,7.711,4.504l-0.233,3.573
								c1.328-1.142,2.741-2.258,4.41-2.847c1.53-0.54,3.175-0.436,4.72-0.015c2.243,0.611,4.369,1.731,6.471,2.704
								c1.988,0.921,3.967,1.862,5.968,2.756c3.233,1.444,6.561,2.773,10.056,3.425c3.481,0.65,7.031,0.463,10.431-0.523
								c2.021-0.586,3.961-1.414,5.821-2.393c1.94-1.022,3.836-2.045,5.924-2.743c3.37-1.127,6.931-1.43,10.458-1.071
								c7.269,0.739,14.23,3.628,21.614,3.473c6.738-0.142,13.895-6.027,13.282-13.164c-0.016-0.191,0.307-0.234,0.334-0.045
								c1.094,7.668-6.595,14.306-13.873,14.371c-3.821,0.034-7.631-0.621-11.356-1.41c-3.448-0.73-6.889-1.614-10.412-1.894
								c-3.615-0.286-7.185,0.17-10.572,1.487c-2.141,0.832-4.061,2.079-6.123,3.073c-1.861,0.897-3.8,1.645-5.808,2.137
								c-3.475,0.851-7.053,0.879-10.556,0.186c-3.492-0.691-6.815-2.038-10.059-3.471c-1.85-0.817-3.682-1.676-5.52-2.52
								c-1.938-0.89-3.882-1.883-5.916-2.536c-1.4-0.449-2.844-0.675-4.268-0.207c-1.486,0.488-2.746,1.573-3.935,2.55
								c-0.395,0.324-0.864,0.231-1.173-0.026l-0.801,12.287c6.885-1.264,13.933-2.004,20.867-1.534
								c4.679,0.317,9.193,1.399,13.779,2.301c2.281,0.449,4.558,0.746,6.876,0.911c2.23,0.159,4.437-0.119,6.608-0.618
								c4.151-0.953,8.118-2.474,12.432-2.481c4.107-0.007,8.139,0.977,12.052,2.141c1.725,0.513,3.442,1.059,5.165,1.585h23.195
								c0.514-0.221,1.024-0.452,1.528-0.699l-1.223-18.762c2.269-0.769,4.565-2.1,6.848-3.833c0.209-1.035,0.362-2.086,0.453-3.15
								c0.331-3.882,0.099-7.781,0.07-11.67c-0.03-4.035,0.318-7.908,1.263-11.833c1.022-4.244,2.425-8.39,3.354-12.656
								c0.207-0.95,0.377-1.906,0.519-2.865l-5.742,6.476c0,0-0.273-3.37-0.704-8.459c-3.892,2.532-8.423,4.146-12.985,4.738
								c-5.36,0.695-10.687-0.185-15.846-1.653c-5.653-1.608-11.218-3.832-17.106-4.431c-2.462-0.251-4.924-0.244-7.303,0.512
								c-2.066,0.657-3.917,1.84-5.619,3.163c-2.027,1.576-3.896,3.339-5.94,4.892c-2.091,1.589-4.286,3.083-6.691,4.159
								c-2.407,1.077-4.982,1.726-7.63,1.704c-2.674-0.023-5.328-0.664-7.771-1.732c-4.754-2.078-8.63-5.686-12.673-8.845
								c-2.023-1.58-4.203-3.376-6.689-4.144c-1.909-0.59-3.893-0.552-5.859-0.367c-0.529,6.191-0.875,10.463-0.875,10.463
								l-3.696-4.168c-0.128,0.825-0.273,1.647-0.454,2.461c-0.56,2.525-1.386,4.974-1.797,7.536
								c-0.331,2.065-0.355,4.17,0.075,6.222C295.499,421.157,296.563,423.481,297.598,425.79z M310.9,425.52
								c2.255-2.418,5.096-4.225,8.328-4.999c3.078-0.737,6.309-0.494,9.373,0.185c6.816,1.511,13.023,5.051,19.272,8.027
								c3.003,1.43,6.156,3.018,9.462,3.579c3.574,0.606,7.148-0.144,10.516-1.345c3.431-1.223,6.7-2.856,10.145-4.041
								c3.162-1.088,6.622-1.933,9.965-1.317c3.116,0.574,6.052,1.861,9.139,2.56c1.424,0.323,2.943,0.56,4.401,0.327
								c1.388-0.222,2.585-0.932,3.588-1.899c0.506-0.488,0.093,1.955-0.539,2.405c-2.442,1.738-5.8,1.232-8.51,0.545
								c-3.043-0.77-5.994-2.107-9.118-2.526c-3.376-0.452-7.009,0.799-10.118,1.985c-3.354,1.279-6.59,2.873-10.026,3.932
								c-3.487,1.075-7.143,1.469-10.728,0.643c-3.186-0.734-6.25-2.318-9.174-3.741c-6.253-3.041-12.487-6.631-19.362-8.068
								c-3.067-0.641-6.28-0.73-9.305,0.177C314.709,422.999,310.24,426.228,310.9,425.52z"/>
							<path style="fill:#FEFFF6;" d="M380.055,465.61c-0.856-0.255-1.711-0.517-2.572-0.754c-4.063-1.117-8.258-1.935-12.488-1.531
								c-3.297,0.315-6.428,1.477-9.633,2.285H380.055z"/>
							<path style="fill:#FEFFF6;" d="M341.375,465.61c-0.885-0.165-1.767-0.34-2.638-0.519c-4.717-0.972-9.378-1.834-14.211-1.908
								c-4.753-0.074-9.503,0.393-14.194,1.126c-1.319,0.206-2.633,0.437-3.946,0.679l-0.041,0.623H341.375z"/>
							<path style="fill:#FEFFF6;" d="M306.771,379.632c1.25,1.234,2.729,2.277,4.421,2.797c1.842,0.565,3.689,0.409,5.515-0.133
								c4.826-1.432,8.815-4.441,13.303-6.587c1.912-0.914,3.937-1.608,6.073-1.677c2.398-0.077,4.725,0.686,6.794,1.856
								c2.615,1.478,4.868,3.54,6.98,5.653c1.887,1.888,3.781,3.922,6.236,5.072c5.633,2.64,11.33-2.232,16.105-4.647
								c2.921-1.478,6.088-2.316,9.362-2.472c3.375-0.16,6.73,0.432,10.009,1.174c3.23,0.731,6.463,1.771,9.785,1.969
								c2.544,0.151,5.073-0.194,7.449-1.131c1.205-0.475,2.333-1.086,3.405-1.789c-0.619-6.714-1.284-13.525-1.888-18.905
								c-1.16-0.121-2.331-0.169-3.521-0.096c-2.683,0.165-5.236,0.878-7.615,2.12c-2.22,1.159-4.303,2.558-6.485,3.783
								c-2.034,1.142-4.211,2.195-6.534,2.568c-2.217,0.356-4.347-0.116-6.378-1.024c-4.198-1.876-7.366-5.322-11.173-7.803
								c-9.145-5.96-19.734-0.9-29.322,0.856c-4.247,0.778-8.659,1.083-12.866-0.092c-4.339-1.212-8.13-3.861-11.182-7.124
								c-1.129-1.207-2.217-2.453-3.318-3.686c-3.608,2.242-6.272,5.364-6.771,9.732c-0.502,4.395-1.05,9.849-1.581,15.458
								C304.487,377.002,305.532,378.409,306.771,379.632z"/>
						</g>
						<path style="fill:none;stroke:#061C3D;stroke-linecap:round;stroke-linejoin:round;stroke-miterlimit:10;" d="
							M377.089,344.671c0,0-16.163,17.117-38.79,0"/>
						
							<line style="fill:none;stroke:#061C3D;stroke-linecap:round;stroke-linejoin:round;stroke-miterlimit:10;" x1="317.163" y1="372.087" x2="307.614" y2="446.148"/>
						
							<line style="fill:none;stroke:#061C3D;stroke-linecap:round;stroke-linejoin:round;stroke-miterlimit:10;" x1="398.263" y1="372.087" x2="407.812" y2="446.148"/>
					</g>
				</g>
				<g>
					<path style="fill:#061C3D;" d="M408.412,255.896c-0.763,0.5-1.256,1.247-1.795,1.969c-0.611,0.819-1.195,1.653-1.776,2.493
						c-1.133,1.635-2.242,3.285-3.356,4.933c-1.114,1.647-2.228,3.294-3.342,4.941l-1.63,2.41c-0.442,0.654-1.45,1.605-1.153,2.444
						c0.074,0.208,0.261,0.388,0.497,0.378c0.893-0.037,1.259-1.044,1.704-1.705c0.569-0.845,1.138-1.689,1.707-2.534
						c1.111-1.649,2.222-3.298,3.332-4.947c1.111-1.649,2.229-3.293,3.321-4.954c0.532-0.81,1.072-1.614,1.576-2.442
						c0.516-0.848,1.131-1.683,1.328-2.67C408.869,255.989,408.632,255.752,408.412,255.896z"/>
					<path style="fill:#061C3D;" d="M415.231,264.638c-0.77,0.17-1.448,0.989-2.052,1.477c-0.757,0.611-1.486,1.255-2.214,1.9
						c-1.454,1.288-2.884,2.601-4.317,3.911c-1.397,1.277-2.795,2.554-4.192,3.831c-0.716,0.655-1.433,1.31-2.148,1.966
						c-0.584,0.536-1.411,1-1.245,1.884c0.042,0.221,0.269,0.445,0.489,0.488c0.028,0.006,0.057,0.011,0.085,0.017
						c0.306,0.06,0.553-0.047,0.73-0.297c0.01-0.015,0.021-0.03,0.032-0.045c0.02-0.028,0.014-0.064,0.026-0.094
						c0.467-0.619,1.253-1.15,1.815-1.668c0.642-0.592,1.284-1.185,1.926-1.777c1.355-1.25,2.711-2.501,4.066-3.751
						c1.32-1.217,2.637-2.436,3.938-3.674c0.632-0.602,1.261-1.208,1.865-1.839c0.541-0.566,1.381-1.155,1.617-1.912
						C415.731,264.797,415.474,264.585,415.231,264.638z"/>
					<path style="fill:#061C3D;" d="M417.942,282.996c-1.197-0.515-2.856-0.25-4.129-0.216c-1.599,0.042-3.198,0.105-4.797,0.146
						c-3.152,0.081-6.306,0.09-9.458,0.018c-0.941-0.021-0.941,1.444,0,1.462c3.154,0.063,6.306,0.044,9.458-0.082
						c1.553-0.062,3.103-0.147,4.652-0.288c0.725-0.066,1.456-0.133,2.176-0.242c0.693-0.105,1.502-0.189,2.099-0.576
						C418.014,283.171,418.037,283.036,417.942,282.996z"/>
					<path style="fill:#061C3D;" d="M297.34,268.146c0.893,0.183,1.627,0.695,2.395,1.168c0.87,0.536,1.721,1.096,2.571,1.661
						c1.656,1.101,3.297,2.225,4.94,3.345c1.643,1.12,3.287,2.239,4.93,3.359l2.405,1.638c0.652,0.445,1.94,0.956,1.974,1.845
						c0.008,0.221-0.099,0.457-0.322,0.535c-0.843,0.295-1.555-0.506-2.213-0.956c-0.841-0.575-1.681-1.15-2.522-1.725
						c-1.641-1.122-3.282-2.245-4.923-3.367c-1.641-1.122-3.287-2.237-4.915-3.378c-0.794-0.556-1.592-1.105-2.366-1.688
						c-0.793-0.598-1.672-1.147-2.22-1.992C296.951,268.402,297.084,268.094,297.34,268.146z"/>
					<path style="fill:#061C3D;" d="M293.996,279.332c0.499,0.616,1.497,0.854,2.209,1.18c0.793,0.364,1.602,0.695,2.412,1.02
						c1.666,0.67,3.34,1.316,5.016,1.961c1.721,0.662,3.442,1.324,5.164,1.985c0.815,0.314,1.631,0.627,2.446,0.94
						c0.713,0.274,1.64,0.478,2.302,0.881c0.022,0.024,0.03,0.06,0.059,0.078c0.015,0.01,0.031,0.02,0.046,0.03
						c0.257,0.167,0.526,0.176,0.789,0.007c0.024-0.016,0.048-0.031,0.073-0.047c0.188-0.121,0.317-0.414,0.274-0.634
						c-0.172-0.883-1.112-1.009-1.853-1.291c-0.907-0.346-1.815-0.69-2.722-1.034c-1.77-0.671-3.54-1.342-5.31-2.013
						c-1.816-0.689-3.63-1.381-5.456-2.041c-0.915-0.331-1.831-0.66-2.759-0.948c-0.742-0.23-1.674-0.741-2.452-0.615
						C293.985,278.828,293.824,279.121,293.996,279.332z"/>
					<path style="fill:#061C3D;" d="M298.488,296.85c0.923-0.921,2.562-1.286,3.758-1.725c1.502-0.551,3.011-1.082,4.512-1.635
						c2.959-1.088,5.894-2.245,8.797-3.475c0.867-0.367,1.408,0.994,0.54,1.359c-2.908,1.222-5.845,2.369-8.82,3.416
						c-1.466,0.516-2.938,1.009-4.43,1.449c-0.698,0.206-1.402,0.414-2.111,0.578c-0.683,0.158-1.466,0.379-2.163,0.239
						C298.485,297.04,298.415,296.923,298.488,296.85z"/>
				</g>
			</g>
		</g>
		<g>
			<g>
				<path style="fill:#F77A76;" d="M354.288,147.769c0.849-43.913-31.512-82.327-76.073-88.039
					c-47.751-6.12-91.421,27.627-97.542,75.378c-0.528,4.118-0.744,8.202-0.695,12.238c-0.326,13.579,2.52,27.434,8.926,40.468
					c9.877,20.096,26.469,34.678,45.732,42.412l-6.006,30.301l28.651-24.555c14.602,1.675,29.782-0.309,44.129-6.46l39.134,15.596
					l-16.971-29.299C343.662,198.771,354.742,173.593,354.288,147.769z"/>
				<g>
					<g>
						<path style="fill:#F9B2AE;" d="M294.85,167.669c-2.317,0-4.316,0-6.888,0c-0.891-7.676-1.768-15.161-2.624-22.649
							c-0.296-2.591,1.033-3.99,3.492-4.208c2.829-0.251,5.682-0.223,8.517-0.43c4.339-0.316,8.781-0.25,12.981-1.212
							c6.728-1.541,9.738-6.978,8.682-13.829c-1.223-7.931-10.584-14.774-18.209-11.831c-2.119,0.818-4.316,1.464-6.516,2.037
							c-2.196,0.572-4.423,1.205-6.669,1.368c-4.954,0.358-8.227-1.938-9.005-5.969c-0.916-4.749,1.218-8.956,5.524-10.671
							c1.221-0.486,2.546-0.862,3.85-0.973c25.776-2.191,43.303,18.922,38.469,41.335c-1.778,8.245-6.4,14.071-14.579,16.722
							c-2.521,0.817-5.076,1.656-7.681,2.054C299.319,160.158,295.412,161.835,294.85,167.669z"/>
						<path style="fill:#F9B2AE;" d="M239.814,135.192c2.099,0,3.956,0,6.447,0c0.326,2.897,0.641,5.671,0.95,8.445
							c0.461,4.149,0.968,8.294,1.361,12.449c0.482,5.101-0.273,6.003-5.482,6.254c-3.22,0.155-6.464-0.131-9.678,0.079
							c-3.393,0.222-6.852,0.455-10.125,1.297c-6,1.544-9.305,6.847-8.596,13.009c0.972,8.44,10.054,14.805,18.299,12.724
							c2.57-0.649,5.022-1.765,7.594-2.406c2.188-0.545,4.474-1.014,6.71-0.986c4.622,0.059,7.212,2.101,8.003,5.796
							c0.885,4.131-0.864,8.376-4.423,10.238c-1.318,0.689-2.832,1.169-4.308,1.366c-20.761,2.761-44.499-14.151-38.956-41.28
							c1.883-9.216,7.536-15.119,16.671-17.542c2.382-0.632,4.82-1.05,7.228-1.586C237.133,141.799,237.132,141.794,239.814,135.192
							z"/>
						<path style="fill:#F9B2AE;" d="M252.501,115.314c0.001,5.761-4.555,10.181-10.561,10.249
							c-5.947,0.067-10.376-4.396-10.283-10.362c0.092-5.904,4.671-10.467,10.426-10.387
							C247.817,104.893,252.5,109.612,252.501,115.314z"/>
						<path style="fill:#F9B2AE;" d="M302.542,187.471c0.089,5.868-4.4,10.437-10.293,10.479
							c-5.842,0.041-10.439-4.551-10.397-10.384c0.04-5.626,4.329-9.927,10.062-10.09
							C298.027,177.303,302.451,181.463,302.542,187.471z"/>
					</g>
				</g>
			</g>
			<g>
				<g>
					<g>
						<path style="fill:#F77A76;" d="M58.093,64.402c1.088,0,2.05,0,3.341,0c0.169,1.501,0.333,2.939,0.492,4.377
							c0.239,2.15,0.502,4.298,0.706,6.452c0.25,2.644-0.142,3.111-2.841,3.241c-1.669,0.08-3.35-0.068-5.016,0.041
							c-1.759,0.115-3.551,0.236-5.247,0.672c-3.11,0.8-4.823,3.549-4.455,6.742c0.504,4.374,5.211,7.673,9.484,6.594
							c1.332-0.336,2.603-0.915,3.936-1.247c1.134-0.282,2.319-0.525,3.477-0.511c2.395,0.03,3.738,1.089,4.148,3.004
							c0.459,2.141-0.448,4.341-2.292,5.306c-0.683,0.357-1.468,0.606-2.232,0.708c-10.759,1.431-23.062-7.334-20.189-21.394
							c0.976-4.776,3.906-7.836,8.64-9.091c1.234-0.327,2.498-0.544,3.746-0.822C56.704,67.826,56.703,67.824,58.093,64.402z"/>
						<path style="fill:#F77A76;" d="M64.668,54.1c0,2.985-2.361,5.277-5.473,5.312c-3.082,0.035-5.377-2.278-5.329-5.37
							c0.048-3.06,2.421-5.424,5.403-5.383C62.241,48.699,64.668,51.145,64.668,54.1z"/>
					</g>
					<g>
						<path style="fill:#F77A76;" d="M382.826,149.495c1.088,0,2.051,0,3.341,0c0.169,1.502,0.332,2.939,0.492,4.377
							c0.239,2.15,0.502,4.298,0.706,6.452c0.25,2.644-0.142,3.111-2.841,3.241c-1.669,0.08-3.35-0.068-5.016,0.041
							c-1.759,0.115-3.551,0.236-5.247,0.672c-3.11,0.8-4.823,3.548-4.455,6.742c0.503,4.374,5.211,7.673,9.484,6.594
							c1.332-0.336,2.603-0.915,3.935-1.247c1.134-0.282,2.319-0.525,3.478-0.511c2.395,0.03,3.738,1.089,4.148,3.004
							c0.459,2.141-0.448,4.341-2.292,5.306c-0.683,0.357-1.468,0.606-2.232,0.708c-10.759,1.431-23.062-7.334-20.189-21.393
							c0.976-4.776,3.906-7.836,8.64-9.091c1.234-0.327,2.498-0.544,3.746-0.822C381.437,152.919,381.436,152.917,382.826,149.495z"
							/>
						<path style="fill:#F77A76;" d="M389.401,139.193c0,2.986-2.361,5.277-5.473,5.312c-3.082,0.035-5.377-2.279-5.329-5.37
							c0.048-3.06,2.421-5.424,5.403-5.383C386.974,133.792,389.401,136.238,389.401,139.193z"/>
					</g>
					<g>
						<path style="fill:#F77A76;" d="M165.821,185.192c1.088,0,2.05,0,3.341,0c0.169,1.501,0.333,2.939,0.492,4.377
							c0.239,2.15,0.502,4.298,0.705,6.452c0.25,2.644-0.142,3.111-2.841,3.241c-1.669,0.08-3.35-0.068-5.016,0.041
							c-1.759,0.115-3.551,0.236-5.247,0.672c-3.11,0.8-4.823,3.549-4.455,6.742c0.503,4.374,5.211,7.672,9.484,6.594
							c1.332-0.336,2.603-0.915,3.935-1.247c1.134-0.283,2.319-0.526,3.477-0.511c2.395,0.03,3.738,1.089,4.148,3.004
							c0.459,2.141-0.448,4.341-2.292,5.306c-0.683,0.357-1.468,0.606-2.232,0.708c-10.759,1.431-23.062-7.334-20.189-21.393
							c0.976-4.776,3.906-7.836,8.64-9.091c1.234-0.327,2.498-0.544,3.746-0.822C164.432,188.616,164.431,188.614,165.821,185.192z"
							/>
						<path style="fill:#F77A76;" d="M172.396,174.89c0,2.985-2.361,5.277-5.473,5.312c-3.082,0.035-5.377-2.279-5.329-5.37
							c0.048-3.06,2.421-5.424,5.403-5.383C169.969,169.489,172.396,171.935,172.396,174.89z"/>
					</g>
					<g>
						<path style="fill:#F77A76;" d="M89.099,151.524c-1.081,0.117-2.038,0.221-3.322,0.361c-0.33-1.474-0.648-2.886-0.962-4.298
							c-0.469-2.112-0.963-4.219-1.398-6.338c-0.534-2.601-0.195-3.108,2.474-3.529c1.651-0.26,3.338-0.294,4.982-0.582
							c1.736-0.305,3.505-0.618,5.144-1.235c3.005-1.131,4.411-4.048,3.701-7.184c-0.973-4.294-6.008-7.065-10.14-5.532
							c-1.288,0.478-2.489,1.191-3.778,1.664c-1.097,0.403-2.248,0.773-3.402,0.883c-2.385,0.228-3.833-0.679-4.448-2.539
							c-0.687-2.079-0.023-4.364,1.706-5.522c0.64-0.429,1.394-0.761,2.143-0.945c10.542-2.584,23.719,4.801,22.381,19.089
							c-0.454,4.854-3.037,8.212-7.608,9.971c-1.192,0.459-2.425,0.811-3.635,1.221C90.11,147.97,90.111,147.973,89.099,151.524z"/>
						<path style="fill:#F77A76;" d="M83.674,162.476c-0.323-2.968,1.777-5.501,4.868-5.872c3.06-0.367,5.592,1.685,5.878,4.764
							c0.283,3.047-1.821,5.654-4.79,5.935C86.671,167.583,83.994,165.413,83.674,162.476z"/>
					</g>
					<g>
						<path style="fill:#F77A76;" d="M132.33,121.19c-1.201,0-2.237,0-3.57,0c-0.462-3.978-0.916-7.857-1.36-11.738
							c-0.154-1.343,0.535-2.068,1.81-2.181c1.466-0.13,2.945-0.116,4.414-0.223c2.249-0.164,4.551-0.129,6.727-0.628
							c3.487-0.799,5.047-3.616,4.499-7.167c-0.634-4.11-5.485-7.657-9.437-6.131c-1.098,0.424-2.237,0.758-3.377,1.055
							c-1.138,0.296-2.292,0.625-3.456,0.709c-2.568,0.186-4.264-1.004-4.667-3.093c-0.474-2.461,0.631-4.642,2.863-5.53
							c0.633-0.252,1.319-0.447,1.995-0.504c13.359-1.136,22.442,9.806,19.937,21.422c-0.922,4.273-3.317,7.293-7.556,8.666
							c-1.306,0.423-2.63,0.858-3.981,1.064C134.646,117.298,132.621,118.167,132.33,121.19z"/>
						<path style="fill:#F77A76;" d="M136.316,131.453c0.046,3.041-2.28,5.409-5.334,5.431c-3.027,0.021-5.41-2.358-5.388-5.382
							c0.021-2.916,2.243-5.145,5.215-5.229C133.976,126.183,136.269,128.339,136.316,131.453z"/>
					</g>
					<g>
						<path style="fill:#F77A76;" d="M179.582,69.216c-1.201,0-2.237,0-3.569,0c-0.462-3.978-0.916-7.857-1.36-11.738
							c-0.154-1.343,0.535-2.068,1.81-2.181c1.466-0.13,2.945-0.116,4.414-0.223c2.249-0.164,4.551-0.129,6.727-0.628
							c3.487-0.799,5.047-3.616,4.499-7.167c-0.634-4.11-5.485-7.657-9.437-6.131c-1.098,0.424-2.237,0.758-3.377,1.055
							c-1.138,0.296-2.292,0.625-3.456,0.709c-2.568,0.186-4.264-1.004-4.667-3.093c-0.475-2.461,0.631-4.642,2.863-5.53
							c0.633-0.252,1.319-0.447,1.995-0.504c13.359-1.136,22.442,9.807,19.937,21.422c-0.921,4.273-3.317,7.293-7.556,8.666
							c-1.306,0.423-2.631,0.858-3.981,1.064C181.898,65.323,179.873,66.192,179.582,69.216z"/>
						<path style="fill:#F77A76;" d="M183.568,79.478c0.046,3.041-2.28,5.409-5.334,5.43c-3.027,0.021-5.41-2.358-5.388-5.382
							c0.021-2.916,2.243-5.145,5.215-5.229C181.228,74.208,183.521,76.365,183.568,79.478z"/>
					</g>
					<g>
						<path style="fill:#F77A76;" d="M435.634,169.298c-1.201,0-2.237,0-3.57,0c-0.462-3.978-0.916-7.857-1.36-11.738
							c-0.153-1.343,0.535-2.068,1.81-2.181c1.466-0.13,2.945-0.116,4.414-0.223c2.249-0.164,4.551-0.129,6.727-0.628
							c3.487-0.799,5.047-3.616,4.499-7.167c-0.634-4.11-5.485-7.657-9.437-6.131c-1.098,0.424-2.237,0.758-3.377,1.055
							c-1.138,0.296-2.292,0.625-3.456,0.709c-2.568,0.186-4.264-1.004-4.667-3.093c-0.474-2.461,0.631-4.642,2.863-5.53
							c0.633-0.252,1.319-0.447,1.995-0.504c13.359-1.136,22.442,9.807,19.937,21.422c-0.922,4.273-3.317,7.293-7.556,8.666
							c-1.306,0.423-2.631,0.858-3.981,1.064C437.95,165.406,435.925,166.275,435.634,169.298z"/>
						<path style="fill:#F77A76;" d="M439.62,179.561c0.046,3.041-2.28,5.409-5.334,5.431c-3.027,0.021-5.41-2.358-5.389-5.382
							c0.021-2.916,2.243-5.145,5.215-5.229C437.28,174.291,439.573,176.447,439.62,179.561z"/>
					</g>
					<g>
						<path style="fill:#F77A76;" d="M391.107,89.195c-1.201,0-2.237,0-3.57,0c-0.462-3.978-0.917-7.857-1.36-11.738
							c-0.154-1.343,0.535-2.068,1.81-2.181c1.466-0.13,2.945-0.116,4.414-0.223c2.249-0.164,4.551-0.129,6.727-0.628
							c3.487-0.799,5.047-3.616,4.499-7.167c-0.634-4.11-5.485-7.657-9.437-6.131c-1.098,0.424-2.237,0.758-3.377,1.055
							c-1.138,0.296-2.292,0.625-3.456,0.709c-2.568,0.186-4.264-1.004-4.667-3.093c-0.475-2.461,0.631-4.642,2.863-5.53
							c0.633-0.252,1.319-0.447,1.995-0.504c13.359-1.136,22.442,9.807,19.937,21.422c-0.922,4.273-3.317,7.293-7.556,8.666
							c-1.306,0.423-2.63,0.858-3.981,1.064C393.423,85.303,391.398,86.172,391.107,89.195z"/>
						<path style="fill:#F77A76;" d="M395.093,99.458c0.046,3.041-2.28,5.409-5.334,5.431c-3.027,0.021-5.41-2.358-5.388-5.382
							c0.021-2.916,2.243-5.145,5.215-5.229C392.753,94.188,395.046,96.344,395.093,99.458z"/>
					</g>
				</g>
			</g>
			<g>
				<path style="fill:#F77A76;" d="M34.452,222.877c-3.485-17.553,7.919-34.608,25.472-38.094
					c17.553-3.485,34.608,7.919,38.094,25.472c2.952,14.867-4.779,29.374-17.88,35.584l3.287,12.15l-12.561-9.353
					C53.916,251.098,37.826,239.869,34.452,222.877z"/>
				<g>
					<g>
						<path style="fill:#F9B2AE;" d="M64.57,224.521c-1.052,0-1.959,0-3.126,0c-0.404-3.484-0.803-6.882-1.191-10.28
							c-0.134-1.176,0.469-1.811,1.585-1.91c1.284-0.114,2.579-0.101,3.866-0.195c1.969-0.144,3.985-0.113,5.892-0.55
							c3.054-0.7,4.42-3.167,3.94-6.277c-0.555-3.6-4.804-6.706-8.265-5.37c-0.962,0.371-1.959,0.664-2.958,0.924
							c-0.997,0.26-2.008,0.547-3.027,0.621c-2.249,0.163-3.734-0.88-4.087-2.709c-0.415-2.155,0.553-4.065,2.507-4.844
							c0.555-0.221,1.156-0.391,1.747-0.442c11.699-0.995,19.655,8.589,17.461,18.761c-0.807,3.742-2.905,6.387-6.617,7.59
							c-1.144,0.371-2.304,0.752-3.486,0.932C66.598,221.111,64.825,221.873,64.57,224.521z"/>
						<path style="fill:#F9B2AE;" d="M68.061,233.508c0.04,2.663-1.997,4.737-4.672,4.756c-2.651,0.018-4.738-2.065-4.719-4.713
							c0.018-2.554,1.965-4.506,4.567-4.579C66.012,228.893,68.02,230.782,68.061,233.508z"/>
					</g>
				</g>
			</g>
		</g>
		
			<line style="fill:none;stroke:#061C3D;stroke-linecap:round;stroke-linejoin:round;stroke-miterlimit:10;" x1="468.129" y1="466.297" x2="18.125" y2="466.297"/>
	</g>
</g>
</svg>
